<?xml version="1.0" encoding="UTF-8" standalone="no"?>
<svg
   viewBox="0 0 512 512"
   version="1.1"
   id="svg1"
   sodipodi:docname="bars-progress.svg"
   inkscape:version="1.4.3 (0d15f75, 2025-12-25)"
   xmlns:inkscape="http://www.inkscape.org/namespaces/inkscape"
   xmlns:sodipodi="http://sodipodi.sourceforge.net/DTD/sodipodi-0.dtd"
   xmlns="http://www.w3.org/2000/svg"
   xmlns:svg="http://www.w3.org/2000/svg">
  <defs
     id="defs1" />
  <sodipodi:namedview
     id="namedview1"
     pagecolor="#ffffff"
     bordercolor="#000000"
     borderopacity="0.25"
     inkscape:showpageshadow="2"
     inkscape:pageopacity="0.0"
     inkscape:pagecheckerboard="0"
     inkscape:deskcolor="#d1d1d1"
     inkscape:zoom="0.96679688"
     inkscape:cx="256"
     inkscape:cy="256"
     inkscape:window-width="1366"
     inkscape:window-height="697"
     inkscape:window-x="-8"
     inkscape:window-y="-8"
     inkscape:window-maximized="1"
     inkscape:current-layer="svg1" />
  <!--! Font Awesome Pro 6.1.1 by @fontawesome - https://fontawesome.com License - https://fontawesome.com/license (Commercial License) Copyright 2022 Fonticons, Inc. -->
  <path
     d="M464 64C490.5 64 512 85.49 512 112V176C512 202.5 490.5 224 464 224H48C21.49 224 0 202.5 0 176V112C0 85.49 21.49 64 48 64H464zM448 128H320V160H448V128zM464 288C490.5 288 512 309.5 512 336V400C512 426.5 490.5 448 464 448H48C21.49 448 0 426.5 0 400V336C0 309.5 21.49 288 48 288H464zM192 352V384H448V352H192z"
     id="path1" />
  <path
     style="fill:#808080;stroke-width:1.03434"
     d="M 40.856566,222.79083 C 26.492207,220.72563 11.517052,209.37505 5.1193047,195.70337 0.51714896,185.86879 -0.29700355,176.05268 0.25461295,137.05051 0.6950128,105.91193 0.89406795,102.9831 2.9554138,97.31178 8.7078209,81.485363 20.765918,70.322439 36.719192,66.054571 c 7.667753,-2.0513 430.893858,-2.0513 438.561618,0 16.24498,4.345906 28.65138,16.040626 33.8958,31.951395 1.92488,5.839784 2.17362,9.658154 2.58059,39.614214 0.52276,38.47853 -0.30258,48.30894 -4.87651,58.08319 -6.61987,14.14635 -21.30367,24.99703 -36.7716,27.17263 -9.06859,1.27551 -420.355962,1.19391 -429.252524,-0.0852 z M 448.90505,144.29091 v -16.5495 h -64.64646 -64.64647 v 16.5495 16.54949 h 64.64647 64.64646 z"
     id="path2" />
  <path
     style="fill:#808080;stroke-width:1.03434"
     d="M 36.20202,445.87135 C 20.620605,441.52885 8.6200258,430.27309 2.9554138,414.68821 0.89406795,409.0169 0.6950128,406.08807 0.25461295,374.94949 -0.29700355,335.94732 0.51714896,326.13121 5.1193047,316.29663 11.739175,302.15029 26.422971,291.2996 41.890909,289.124 c 9.856247,-1.3863 418.361931,-1.3863 428.218181,0 15.46793,2.1756 30.15173,13.02629 36.7716,27.17263 4.57393,9.77426 5.39927,19.60466 4.87651,58.08319 -0.40697,29.95606 -0.65571,33.77443 -2.58059,39.61422 -5.24442,15.91076 -17.65082,27.60548 -33.8958,31.95139 -7.37784,1.97374 -431.988015,1.9021 -439.07879,-0.0741 z M 448.90505,367.70909 V 351.1596 H 320.12929 191.35354 v 16.54949 16.5495 h 128.77575 128.77576 z"
     id="path3" />
</svg>
