<?xml version="1.0" encoding="UTF-8" standalone="no"?>
<svg
   viewBox="0 0 448 512"
   version="1.1"
   id="svg1"
   sodipodi:docname="bell-exclamation-white.svg"
   inkscape:version="1.4.3 (0d15f75, 2025-12-25)"
   xmlns:inkscape="http://www.inkscape.org/namespaces/inkscape"
   xmlns:sodipodi="http://sodipodi.sourceforge.net/DTD/sodipodi-0.dtd"
   xmlns="http://www.w3.org/2000/svg"
   xmlns:svg="http://www.w3.org/2000/svg">
  <defs
     id="defs1" />
  <sodipodi:namedview
     id="namedview1"
     pagecolor="#ffffff"
     bordercolor="#000000"
     borderopacity="0.25"
     inkscape:showpageshadow="2"
     inkscape:pageopacity="0.0"
     inkscape:pagecheckerboard="0"
     inkscape:deskcolor="#d1d1d1"
     inkscape:zoom="0.96679688"
     inkscape:cx="223.93535"
     inkscape:cy="256"
     inkscape:window-width="1366"
     inkscape:window-height="697"
     inkscape:window-x="-8"
     inkscape:window-y="-8"
     inkscape:window-maximized="1"
     inkscape:current-layer="svg1" />
  <!--! Font Awesome Pro 6.1.1 by @fontawesome - https://fontawesome.com License - https://fontawesome.com/license (Commercial License) Copyright 2022 Fonticons, Inc. -->
  <path
     d="M256 32V51.2C329 66.03 384 130.6 384 208V226.8C384 273.9 401.3 319.2 432.5 354.4L439.9 362.7C448.3 372.2 450.4 385.6 445.2 397.1C440 408.6 428.6 416 416 416H32C19.4 416 7.971 408.6 2.809 397.1C-2.353 385.6-.2883 372.2 8.084 362.7L15.5 354.4C46.74 319.2 64 273.9 64 226.8V208C64 130.6 118.1 66.03 192 51.2V32C192 14.33 206.3 0 224 0C241.7 0 256 14.33 256 32H256zM224 288C206.3 288 192 302.3 192 320C192 337.7 206.3 352 224 352C241.7 352 256 337.7 256 320C256 302.3 241.7 288 224 288zM248 136C248 122.7 237.3 112 224 112C210.7 112 200 122.7 200 136V232C200 245.3 210.7 256 224 256C237.3 256 248 245.3 248 232V136zM224 512C207 512 190.7 505.3 178.7 493.3C166.7 481.3 160 464.1 160 448H288C288 464.1 281.3 481.3 269.3 493.3C257.3 505.3 240.1 512 224 512z"
     id="path1" />
  <path
     style="fill:#ffffff;stroke-width:1.03434"
     d="M 23.789899,414.32699 C 14.191197,411.37676 5.4482413,403.21985 2.5580546,394.51831 0.06803415,387.02157 0.40555261,378.04612 3.4221615,371.5396 4.7945523,368.57948 9.3800882,362.20121 13.612241,357.36566 31.191783,337.2797 41.156478,321.55312 50.02033,299.90532 c 9.850626,-24.05774 14.108484,-46.86684 14.109828,-75.58554 0.0014,-30.95124 2.771921,-50.7883 9.807865,-70.22597 16.787675,-46.37804 53.915127,-82.379258 100.734997,-97.679279 5.31241,-1.736012 11.42711,-3.43913 13.58821,-3.784705 l 3.9293,-0.628319 0.38473,-13.588633 c 0.32261,-11.394026 0.76441,-14.42388 2.73559,-18.760349 6.70114,-14.7421455 22.95347,-22.2185054 38.07523,-17.5152827 4.81815,1.4985598 7.34918,3.1732629 12.31612,8.1492157 8.18645,8.2013 9.77848,12.983318 9.78653,29.395957 l 0.006,12.034757 8.01026,1.908936 c 16.85105,4.015804 36.24728,12.984452 52.48702,24.269554 11.94546,8.300976 31.663,28.522628 40.0426,41.066338 7.98444,11.95218 14.88036,25.99425 19.29619,39.29255 6.23317,18.77121 8.35562,34.81941 8.41297,63.61212 0.0563,28.25099 2.91131,46.4449 10.85845,69.1962 7.80334,22.3396 21.42924,45.33716 38.36474,64.75127 4.96259,5.68889 10.20539,12.90344 11.6507,16.03232 6.74971,14.61226 0.26981,32.21722 -14.78223,40.16116 l -5.23736,2.7641 -199.11111,0.17503 c -109.5112,0.0963 -200.274839,-0.18262 -201.697061,-0.61976 z M 238.03064,349.30812 c 24.16308,-11.85158 24.46693,-46.36238 0.51203,-58.15534 -5.79385,-2.8523 -7.75094,-3.28719 -14.67094,-3.26005 -13.52931,0.0531 -23.65162,6.46785 -29.59999,18.75834 -3.30351,6.82571 -3.26543,19.22131 0.082,26.6869 2.94194,6.56128 11.61867,14.87647 17.92802,17.18102 6.5853,2.40533 19.62651,1.79206 25.74889,-1.21087 z m -3.06283,-95.46448 c 5.24533,-2.67597 8.84736,-6.43192 11.3234,-11.80728 1.77309,-3.84931 1.90737,-7.88608 1.9285,-57.97873 l 0.0227,-53.84135 -2.72558,-5.46954 c -8.77768,-17.61452 -34.38529,-17.61452 -43.16297,0 l -2.72559,5.46954 0.006,52.80701 c 0.004,34.037 0.39584,54.21173 1.10317,56.75901 1.40199,5.04887 7.53424,11.86484 12.8547,14.28797 5.85057,2.66455 15.91793,2.55781 21.37589,-0.22663 z"
     id="path2" />
  <path
     style="fill:#ffffff;stroke-width:1.03434"
     d="m 211.00606,509.97261 c -27.33237,-6.23743 -46.62777,-27.82434 -50.19347,-56.15443 l -0.68348,-5.4303 h 63.82836 63.82837 l -0.72435,5.79745 c -0.97035,7.76647 -3.21133,15.0478 -7.12921,23.16416 -4.51159,9.34629 -17.35783,22.20457 -26.68161,26.70664 -14.00119,6.7606 -29.21116,8.89079 -42.24461,5.91648 z"
     id="path3" />
</svg>
