<?xml version="1.0" encoding="UTF-8" standalone="no"?>
<svg
   viewBox="0 0 512 512"
   version="1.1"
   id="svg1"
   sodipodi:docname="circle-info-white.svg"
   inkscape:version="1.4.3 (0d15f75, 2025-12-25)"
   xmlns:inkscape="http://www.inkscape.org/namespaces/inkscape"
   xmlns:sodipodi="http://sodipodi.sourceforge.net/DTD/sodipodi-0.dtd"
   xmlns="http://www.w3.org/2000/svg"
   xmlns:svg="http://www.w3.org/2000/svg">
  <defs
     id="defs1" />
  <sodipodi:namedview
     id="namedview1"
     pagecolor="#ffffff"
     bordercolor="#000000"
     borderopacity="0.25"
     inkscape:showpageshadow="2"
     inkscape:pageopacity="0.0"
     inkscape:pagecheckerboard="0"
     inkscape:deskcolor="#d1d1d1"
     inkscape:zoom="0.96679688"
     inkscape:cx="256"
     inkscape:cy="256"
     inkscape:window-width="1366"
     inkscape:window-height="697"
     inkscape:window-x="-8"
     inkscape:window-y="-8"
     inkscape:window-maximized="1"
     inkscape:current-layer="svg1" />
  <!--! Font Awesome Pro 6.1.1 by @fontawesome - https://fontawesome.com License - https://fontawesome.com/license (Commercial License) Copyright 2022 Fonticons, Inc. -->
  <path
     d="M256 0C114.6 0 0 114.6 0 256s114.6 256 256 256s256-114.6 256-256S397.4 0 256 0zM256 128c17.67 0 32 14.33 32 32c0 17.67-14.33 32-32 32S224 177.7 224 160C224 142.3 238.3 128 256 128zM296 384h-80C202.8 384 192 373.3 192 360s10.75-24 24-24h16v-64H224c-13.25 0-24-10.75-24-24S210.8 224 224 224h32c13.25 0 24 10.75 24 24v88h16c13.25 0 24 10.75 24 24S309.3 384 296 384z"
     id="path1" />
  <path
     style="fill:#ffffff;stroke-width:1.03434"
     d="M 232.17629,510.46786 C 183.41972,505.29725 140.23162,488.25746 100.63385,458.56805 79.693802,442.86773 54.677466,415.27698 38.884979,390.46465 32.445121,380.34668 20.825322,356.45586 16.036123,343.4864 -4.1962247,288.69588 -4.2010381,223.46951 16.023212,168.5136 18.099693,162.87112 23.234236,151.27273 27.433307,142.73939 83.284514,29.238788 215.38658,-26.291211 335.34541,13.306456 c 57.14217,18.862283 104.6377,56.173765 137.76961,108.228894 11.41554,17.9355 23.94227,46.96547 29.64426,68.69887 6.53937,24.92508 7.67164,34.63165 7.67164,65.76578 0,25.20172 -0.27251,29.95769 -2.39038,41.7183 -7.92427,44.00375 -24.42361,81.18797 -51.70932,116.53625 -8.0461,10.42361 -29.80444,32.44557 -40.00799,40.49272 -37.40198,29.4975 -76.86427,46.69619 -124.30421,54.17503 -11.92975,1.88071 -47.91797,2.81018 -59.84273,1.54556 z m 75.09683,-129.05372 c 17.54655,-8.88749 17.58566,-33.78634 0.0673,-42.88725 -5.02884,-2.61252 -6.55438,-2.88245 -16.2909,-2.88245 h -10.7425 l -0.0227,-46.80404 c -0.0253,-52.20886 0.0848,-51.33421 -7.34998,-58.38798 -6.36092,-6.03497 -8.8372,-6.51949 -33.19207,-6.49435 -25.07287,0.0259 -27.38248,0.56892 -34.09772,8.01715 -11.39853,12.64274 -5.97067,33.30191 10.2725,39.09853 2.13449,0.76172 6.55725,1.40538 9.82836,1.43035 l 5.94748,0.0454 v 31.54748 31.54747 h -10.7425 c -9.73652,0 -11.26206,0.26993 -16.2909,2.88245 -17.51843,9.10097 -17.47932,33.99969 0.0674,42.88725 l 5.61578,2.84445 H 256 301.65734 Z M 270.70257,188.65475 c 6.90486,-3.31231 11.35605,-7.87186 15.03617,-15.40222 3.28884,-6.72971 3.21573,-19.13286 -0.15712,-26.65515 -3.28235,-7.32047 -11.9174,-15.18817 -18.96728,-17.28176 -6.86532,-2.03878 -15.70903,-2.00354 -21.84458,0.0871 -6.65475,2.2675 -15.28337,10.35227 -18.35138,17.19471 -3.37285,7.52229 -3.44596,19.92544 -0.15712,26.65515 3.38024,6.91671 7.68758,11.62228 13.56881,14.82325 10.225,5.56514 20.09252,5.75019 30.8725,0.57897 z"
     id="path2" />
</svg>
