<?xml version="1.0" encoding="UTF-8" standalone="no"?>
<svg
   viewBox="0 0 384 512"
   version="1.1"
   id="svg1"
   sodipodi:docname="clipboard-list-check.svg"
   inkscape:version="1.4.3 (0d15f75, 2025-12-25)"
   xmlns:inkscape="http://www.inkscape.org/namespaces/inkscape"
   xmlns:sodipodi="http://sodipodi.sourceforge.net/DTD/sodipodi-0.dtd"
   xmlns="http://www.w3.org/2000/svg"
   xmlns:svg="http://www.w3.org/2000/svg">
  <defs
     id="defs1" />
  <sodipodi:namedview
     id="namedview1"
     pagecolor="#ffffff"
     bordercolor="#000000"
     borderopacity="0.25"
     inkscape:showpageshadow="2"
     inkscape:pageopacity="0.0"
     inkscape:pagecheckerboard="0"
     inkscape:deskcolor="#d1d1d1"
     inkscape:zoom="0.96679688"
     inkscape:cx="191.87071"
     inkscape:cy="256"
     inkscape:window-width="1366"
     inkscape:window-height="697"
     inkscape:window-x="-8"
     inkscape:window-y="-8"
     inkscape:window-maximized="1"
     inkscape:current-layer="svg1" />
  <!--! Font Awesome Pro 6.1.1 by @fontawesome - https://fontawesome.com License - https://fontawesome.com/license (Commercial License) Copyright 2022 Fonticons, Inc. -->
  <path
     d="M336 64h-53.88C268.9 26.8 233.7 0 192 0S115.1 26.8 101.9 64H48C21.5 64 0 85.48 0 112v352C0 490.5 21.5 512 48 512h288c26.5 0 48-21.48 48-48v-352C384 85.48 362.5 64 336 64zM192 64c17.67 0 32 14.33 32 32c0 17.67-14.33 32-32 32S160 113.7 160 96C160 78.33 174.3 64 192 64zM96 392c-13.25 0-24-10.75-24-24S82.75 344 96 344s24 10.75 24 24S109.3 392 96 392zM112 288C107.9 288 103.8 286.4 100.7 283.3l-32-32c-6.25-6.25-6.25-16.38 0-22.62s16.38-6.25 22.62 0L112 249.4l52.69-52.69c6.25-6.25 16.38-6.25 22.62 0s6.25 16.38 0 22.62l-64 64C120.2 286.4 116.1 288 112 288zM304 384h-128C167.2 384 160 376.8 160 368C160 359.2 167.2 352 176 352h128c8.801 0 16 7.199 16 16C320 376.8 312.8 384 304 384zM304 288h-96C199.2 288 192 280.8 192 272C192 263.2 199.2 256 208 256h96C312.8 256 320 263.2 320 272C320 280.8 312.8 288 304 288z"
     id="path1" />
  <path
     style="fill:#808080;stroke-width:1.03434"
     d="M 36.461303,509.88462 C 20.390935,505.55724 7.725877,493.54786 2.8362901,478.00039 L 0.51717172,470.62626 V 287.0303 103.43434 L 2.8489727,97.31178 C 7.5738733,84.905703 15.681942,75.517996 26.375758,70.071935 c 9.75326,-4.967063 13.401894,-5.400056 45.614525,-5.413194 l 30.099377,-0.01228 2.82193,-6.639752 c 6.50339,-15.301869 20.30625,-31.524543 35.35543,-41.553657 35.30953,-23.5310705 80.77199,-20.5364516 113.63896,7.485415 9.57598,8.164332 16.98638,17.98038 23.08873,30.584047 l 4.86388,10.045751 30.03723,0.0391 c 23.71092,0.03086 31.33563,0.3772 36.20202,1.644401 16.57715,4.316667 29.9557,18.353867 34.05091,35.727324 2.33225,9.89432 2.36373,362.14404 0.0333,372.02861 -4.21892,17.89418 -17.29623,31.22729 -35.20275,35.89135 -5.33032,1.38837 -24.52648,1.57538 -155.58444,1.51571 -125.419754,-0.0571 -150.378577,-0.3036 -154.933507,-1.53014 z m 67.172837,-118.5677 c 5.69269,-1.70557 12.7313,-8.22556 14.83967,-13.74626 2.78982,-7.30502 1.79738,-17.41715 -2.29136,-23.34706 -4.58079,-6.64351 -11.65185,-10.30441 -19.903122,-10.30441 -14.572412,0 -24.243236,9.45038 -24.344827,23.7899 -0.122994,17.36047 14.988571,28.61459 31.699639,23.60783 z m 208.7481,-9.38561 c 4.94973,-3.36876 7.39247,-7.15692 7.92758,-12.29395 0.61562,-5.91005 -2.91311,-12.96397 -7.9381,-15.86824 -3.53477,-2.04297 -5.24354,-2.09235 -72.40404,-2.09235 -67.1605,0 -68.86928,0.0494 -72.40404,2.09235 -5.025,2.90427 -8.55372,9.95819 -7.9381,15.86824 0.5351,5.13703 2.97784,8.92519 7.92758,12.29395 l 3.41947,2.32728 h 68.99509 68.99508 z M 119.77662,286.5868 c 1.53619,-0.81282 18.23569,-16.98737 37.11,-35.94344 30.00655,-30.13654 34.40711,-34.96004 35.03504,-38.40217 2.2723,-12.45606 -5.45346,-21.16506 -17.86265,-20.13599 l -5.63132,0.467 -28.11344,28.09948 -28.11342,28.09949 -10.84789,-10.93926 C 88.246796,224.61539 86.485446,223.56597 78.391694,224.15142 c -5.302654,0.38356 -6.564763,0.91269 -9.732289,4.08022 -4.258319,4.25831 -5.879364,9.89101 -4.546871,15.7991 0.759267,3.36649 3.94766,7.10646 18.825018,22.08165 9.851013,9.91579 19.307298,18.90977 21.013968,19.98662 3.73966,2.3596 11.81689,2.60857 15.8251,0.48779 z m 193.873,-1.10801 c 3.41905,-2.4998 6.99684,-9.37556 6.99684,-13.44647 0,-4.53389 -3.88978,-11.5732 -7.69447,-13.92463 C 309.63563,256.05807 308.06666,256 256,256 c -52.06666,0 -53.63563,0.0581 -56.95199,2.10769 -3.75126,2.3184 -7.69447,9.37377 -7.69447,13.76725 0,5.84782 4.61448,12.98885 9.82626,15.20639 1.13778,0.48411 26.27232,0.78704 55.85454,0.67317 51.98026,-0.20007 53.88085,-0.27647 56.61528,-2.27571 z M 206.29902,125.13557 c 6.43363,-3.04358 12.2755,-9.06365 15.41549,-15.88573 3.40792,-7.40413 3.13118,-20.575175 -0.58089,-27.648002 -12.8671,-24.516356 -47.67493,-23.611177 -59.0732,1.5362 -2.71072,5.980531 -2.9452,19.381972 -0.43654,24.950852 7.93789,17.62103 27.60119,25.12395 44.67514,17.04668 z"
     id="path2" />
</svg>
