<?xml version="1.0" encoding="UTF-8" standalone="no"?>
<svg
   viewBox="0 0 512 512"
   version="1.1"
   id="svg1"
   sodipodi:docname="clipboard-list-check-link.svg"
   inkscape:version="1.4.3 (0d15f75, 2025-12-25)"
   xmlns:inkscape="http://www.inkscape.org/namespaces/inkscape"
   xmlns:sodipodi="http://sodipodi.sourceforge.net/DTD/sodipodi-0.dtd"
   xmlns="http://www.w3.org/2000/svg"
   xmlns:svg="http://www.w3.org/2000/svg">
  <defs
     id="defs1" />
  <sodipodi:namedview
     id="namedview1"
     pagecolor="#ffffff"
     bordercolor="#000000"
     borderopacity="0.25"
     inkscape:showpageshadow="2"
     inkscape:pageopacity="0.0"
     inkscape:pagecheckerboard="0"
     inkscape:deskcolor="#d1d1d1"
     inkscape:zoom="0.79882812"
     inkscape:cx="256"
     inkscape:cy="256"
     inkscape:window-width="1366"
     inkscape:window-height="697"
     inkscape:window-x="-8"
     inkscape:window-y="-8"
     inkscape:window-maximized="1"
     inkscape:current-layer="svg1" />
  <!--! Font Awesome Pro 6.1.1 by @fontawesome - https://fontawesome.com License - https://fontawesome.com/license (Commercial License) Copyright 2022 Fonticons, Inc. -->
  <g
     id="g3"
     transform="matrix(0.5,0,0,0.5,198.14164,263.36249)">
    <path
       d="m 172.5,131.1 c 55.6,-55.59 148,-55.59 203.6,0 50,50 57.4,129.7 16.3,187.2 l -1.1,1.6 C 381,334.2 361,337.6 346.7,327.3 332.3,317 328.9,297 339.2,282.7 l 1.1,-1.6 c 22.9,-32.1 19.3,-76 -8.6,-103.9 -31.4,-31.4 -82.5,-31.4 -114,0 L 105.5,289.5 c -31.51,30.6 -31.51,82.5 0,114 27.8,27.9 71.8,31.5 103.8,8.6 l 1.6,-2 c 14.4,-9.4 34.4,-6.1 44.6,8.3 10.3,14.4 7,34.4 -7.4,44.7 l -1.6,1.1 C 188.1,505.3 110.2,498.7 60.21,448.8 3.741,392.3 3.741,300.7 60.21,244.3 Z M 467.5,380 C 411,436.5 319.5,436.5 263,380 213,330 206.5,251.2 247.6,193.7 l 1.1,-1.6 c 9.4,-14.3 29.4,-17.7 44.6,-7.4 14.4,9.4 17.8,29.4 7.5,44.6 l -1.1,1.6 c -22.9,31.2 -19.3,76 8.6,103.9 31.4,31.4 82.5,31.4 114,0 L 534.5,222.5 C 566,191 566,139.1 534.5,108.5 506.7,80.63 462.7,76.99 430.7,99.9 l -1.6,1.1 c -14.4,10.3 -34.4,6.1 -44.6,-7.42 -10.3,-14.38 -7,-34.37 7.4,-44.64 l 1.6,-1.12 C 451,6.731 529.8,13.25 579.8,63.24 c 56.5,56.46 56.5,148.06 0,204.46 z"
       id="path1-8" />
    <path
       style="fill:#808080;stroke-width:1.03434"
       d="M 146.47211,489.77081 C 79.867774,481.35282 28.994446,431.23065 19.571397,364.74379 18.023199,353.82007 18.912649,328.60814 21.21833,318.06061 26.454872,294.10559 37.443076,271.45656 52.375612,253.83877 61.969332,242.51986 180.64281,124.18554 187.81149,118.78996 231.77844,85.697773 291.17201,80.836898 340.70145,106.27717 c 47.55333,24.42526 77.47215,74.30915 77.39181,129.03596 -0.0334,22.73943 -4.87108,43.48149 -14.75225,63.25147 -8.44275,16.89204 -15.82108,26.22913 -24.25414,30.69304 -4.41111,2.33497 -6.46474,2.73971 -13.96364,2.75209 -7.81382,0.0129 -9.40396,-0.32452 -14.29343,-3.03308 -10.0314,-5.55693 -15.69986,-14.31872 -16.50319,-25.5091 -0.62044,-8.64273 0.65227,-12.59052 7.64214,-23.7051 10.05182,-15.98336 14.70753,-33.35552 13.5195,-50.4463 -1.4334,-20.62076 -8.33147,-36.4284 -22.37508,-51.27482 -26.48743,-28.00159 -71.69017,-32.73655 -104.24354,-10.91945 -6.73857,4.51616 -126.53384,124.03027 -132.223889,131.91357 -21.187624,29.35446 -19.830627,71.07515 3.220746,99.0214 21.541623,26.11591 57.896123,36.15516 89.837113,24.8084 7.84002,-2.78511 20.26812,-9.50041 20.26812,-10.95153 0,-0.48216 2.67636,-2.1114 5.94747,-3.62055 7.57887,-3.49655 17.89518,-3.67733 25.25833,-0.44263 19.3311,8.49234 25.74318,33.35656 12.57071,48.74563 -10.37582,12.12181 -38.94141,26.1065 -63.58366,31.12827 -11.79138,2.40293 -33.00877,3.39667 -43.69246,2.04637 z"
       id="path2-8" />
    <path
       style="fill:#808080;stroke-width:1.03434"
       d="m 342.36768,419.95421 c -46.07097,-7.89064 -85.22598,-36.81189 -106.18577,-78.43248 -16.61452,-32.99202 -19.30883,-75.09777 -7.05592,-110.26717 7.10947,-20.40621 19.71978,-41.32557 28.12421,-46.6555 11.78624,-7.47461 25.71018,-6.78626 36.91833,1.82514 13.54276,10.40509 15.65125,28.4902 5.10845,43.81673 -10.71969,15.58369 -15.46984,32.26953 -14.53212,51.04694 1.10957,22.21844 8.06338,38.28486 23.22869,53.66878 15.40353,15.62557 34.47515,23.44051 57.14968,23.41814 17.39691,-0.0172 31.37067,-4.01913 45.06729,-12.90694 7.12389,-4.62273 124.07392,-120.54646 131.47771,-130.32392 6.12247,-8.08535 11.11994,-18.11845 14.01821,-28.14344 3.03933,-10.51296 3.2435,-32.26519 0.40088,-42.70958 -4.20756,-15.45941 -14.2952,-31.04052 -26.66731,-41.18962 -27.81496,-22.817185 -66.58132,-24.85207 -96.86235,-5.084402 -9.58512,6.257232 -14.27521,8.003312 -21.49738,8.003312 -17.16901,0 -31.59413,-13.983157 -31.69616,-30.725034 -0.0843,-13.836268 6.56614,-22.761724 25.06416,-33.638123 47.92528,-28.178933 106.81624,-26.616251 152.91628,4.057661 11.15209,7.420343 28.92945,24.519176 36.6712,35.271535 11.82988,16.430259 20.75978,37.020151 25.21244,58.132951 2.58904,12.27623 2.58904,40.47529 0,52.75152 -2.48966,11.80504 -8.00422,28.12497 -12.63825,37.40199 -9.67854,19.3758 -11.33582,21.23715 -82.07801,92.18464 -48.09128,48.23082 -69.27875,68.77779 -75.60689,73.32124 -17.11712,12.28968 -40.17103,21.73167 -61.51259,25.19316 -11.27726,1.82912 -34.29514,1.82016 -45.02478,-0.0175 z"
       id="path3" />
  </g>
  <g
     id="g1"
     transform="matrix(0.65,0,0,0.65,7.1119804,5.7271394)">
    <path
       d="M 336,64 H 282.12 C 268.9,26.8 233.7,0 192,0 150.3,0 115.1,26.8 101.9,64 H 48 C 21.5,64 0,85.48 0,112 v 352 c 0,26.5 21.5,48 48,48 h 288 c 26.5,0 48,-21.48 48,-48 V 112 C 384,85.48 362.5,64 336,64 Z m -144,0 c 17.67,0 32,14.33 32,32 0,17.67 -14.33,32 -32,32 -17.67,0 -32,-14.3 -32,-32 0,-17.67 14.3,-32 32,-32 z M 96,392 c -13.25,0 -24,-10.75 -24,-24 0,-13.25 10.75,-24 24,-24 13.25,0 24,10.75 24,24 0,13.25 -10.7,24 -24,24 z m 16,-104 c -4.1,0 -8.2,-1.6 -11.3,-4.7 l -32,-32 c -6.25,-6.25 -6.25,-16.38 0,-22.62 6.25,-6.24 16.38,-6.25 22.62,0 L 112,249.4 164.69,196.71 c 6.25,-6.25 16.38,-6.25 22.62,0 6.24,6.25 6.25,16.38 0,22.62 l -64,64 C 120.2,286.4 116.1,288 112,288 Z m 192,96 H 176 c -8.8,0 -16,-7.2 -16,-16 0,-8.8 7.2,-16 16,-16 h 128 c 8.801,0 16,7.199 16,16 0,8.8 -7.2,16 -16,16 z m 0,-96 h -96 c -8.8,0 -16,-7.2 -16,-16 0,-8.8 7.2,-16 16,-16 h 96 c 8.8,0 16,7.2 16,16 0,8.8 -7.2,16 -16,16 z"
       id="path1-88" />
    <path
       style="fill:#808080;stroke-width:1.03434"
       d="M 36.461303,509.88462 C 20.390935,505.55724 7.725877,493.54786 2.8362901,478.00039 L 0.51717172,470.62626 V 287.0303 103.43434 L 2.8489727,97.31178 C 7.5738733,84.905703 15.681942,75.517996 26.375758,70.071935 c 9.75326,-4.967063 13.401894,-5.400056 45.614525,-5.413194 l 30.099377,-0.01228 2.82193,-6.639752 c 6.50339,-15.301869 20.30625,-31.524543 35.35543,-41.553657 35.30953,-23.5310705 80.77199,-20.5364516 113.63896,7.485415 9.57598,8.164332 16.98638,17.98038 23.08873,30.584047 l 4.86388,10.045751 30.03723,0.0391 c 23.71092,0.03086 31.33563,0.3772 36.20202,1.644401 16.57715,4.316667 29.9557,18.353867 34.05091,35.727324 2.33225,9.89432 2.36373,362.14404 0.0333,372.02861 -4.21892,17.89418 -17.29623,31.22729 -35.20275,35.89135 -5.33032,1.38837 -24.52648,1.57538 -155.58444,1.51571 -125.419754,-0.0571 -150.378577,-0.3036 -154.933507,-1.53014 z m 67.172837,-118.5677 c 5.69269,-1.70557 12.7313,-8.22556 14.83967,-13.74626 2.78982,-7.30502 1.79738,-17.41715 -2.29136,-23.34706 -4.58079,-6.64351 -11.65185,-10.30441 -19.903122,-10.30441 -14.572412,0 -24.243236,9.45038 -24.344827,23.7899 -0.122994,17.36047 14.988571,28.61459 31.699639,23.60783 z m 208.7481,-9.38561 c 4.94973,-3.36876 7.39247,-7.15692 7.92758,-12.29395 0.61562,-5.91005 -2.91311,-12.96397 -7.9381,-15.86824 -3.53477,-2.04297 -5.24354,-2.09235 -72.40404,-2.09235 -67.1605,0 -68.86928,0.0494 -72.40404,2.09235 -5.025,2.90427 -8.55372,9.95819 -7.9381,15.86824 0.5351,5.13703 2.97784,8.92519 7.92758,12.29395 l 3.41947,2.32728 h 68.99509 68.99508 z M 119.77662,286.5868 c 1.53619,-0.81282 18.23569,-16.98737 37.11,-35.94344 30.00655,-30.13654 34.40711,-34.96004 35.03504,-38.40217 2.2723,-12.45606 -5.45346,-21.16506 -17.86265,-20.13599 l -5.63132,0.467 -28.11344,28.09948 -28.11342,28.09949 -10.84789,-10.93926 C 88.246796,224.61539 86.485446,223.56597 78.391694,224.15142 c -5.302654,0.38356 -6.564763,0.91269 -9.732289,4.08022 -4.258319,4.25831 -5.879364,9.89101 -4.546871,15.7991 0.759267,3.36649 3.94766,7.10646 18.825018,22.08165 9.851013,9.91579 19.307298,18.90977 21.013968,19.98662 3.73966,2.3596 11.81689,2.60857 15.8251,0.48779 z m 193.873,-1.10801 c 3.41905,-2.4998 6.99684,-9.37556 6.99684,-13.44647 0,-4.53389 -3.88978,-11.5732 -7.69447,-13.92463 C 309.63563,256.05807 308.06666,256 256,256 c -52.06666,0 -53.63563,0.0581 -56.95199,2.10769 -3.75126,2.3184 -7.69447,9.37377 -7.69447,13.76725 0,5.84782 4.61448,12.98885 9.82626,15.20639 1.13778,0.48411 26.27232,0.78704 55.85454,0.67317 51.98026,-0.20007 53.88085,-0.27647 56.61528,-2.27571 z M 206.29902,125.13557 c 6.43363,-3.04358 12.2755,-9.06365 15.41549,-15.88573 3.40792,-7.40413 3.13118,-20.575175 -0.58089,-27.648002 -12.8671,-24.516356 -47.67493,-23.611177 -59.0732,1.5362 -2.71072,5.980531 -2.9452,19.381972 -0.43654,24.950852 7.93789,17.62103 27.60119,25.12395 44.67514,17.04668 z"
       id="path2-2" />
  </g>
</svg>
