<?xml version="1.0" encoding="UTF-8" standalone="no"?>
<svg
   viewBox="0 0 448 512"
   version="1.1"
   id="svg9655"
   sodipodi:docname="compress.svg"
   inkscape:version="1.2.1 (9c6d41e410, 2022-07-14)"
   xmlns:inkscape="http://www.inkscape.org/namespaces/inkscape"
   xmlns:sodipodi="http://sodipodi.sourceforge.net/DTD/sodipodi-0.dtd"
   xmlns="http://www.w3.org/2000/svg"
   xmlns:svg="http://www.w3.org/2000/svg">
  <defs
     id="defs9659" />
  <sodipodi:namedview
     id="namedview9657"
     pagecolor="#ffffff"
     bordercolor="#000000"
     borderopacity="0.25"
     inkscape:showpageshadow="2"
     inkscape:pageopacity="0.0"
     inkscape:pagecheckerboard="0"
     inkscape:deskcolor="#d1d1d1"
     showgrid="false"
     inkscape:zoom="1.7128906"
     inkscape:cx="224.18244"
     inkscape:cy="256.2919"
     inkscape:window-width="1920"
     inkscape:window-height="1057"
     inkscape:window-x="-8"
     inkscape:window-y="-8"
     inkscape:window-maximized="1"
     inkscape:current-layer="svg9655" />
  <!--! Font Awesome Pro 6.1.1 by @fontawesome - https://fontawesome.com License - https://fontawesome.com/license (Commercial License) Copyright 2022 Fonticons, Inc. -->
  <path
     d="M128 320H32c-17.69 0-32 14.31-32 32s14.31 32 32 32h64v64c0 17.69 14.31 32 32 32s32-14.31 32-32v-96C160 334.3 145.7 320 128 320zM416 320h-96c-17.69 0-32 14.31-32 32v96c0 17.69 14.31 32 32 32s32-14.31 32-32v-64h64c17.69 0 32-14.31 32-32S433.7 320 416 320zM320 192h96c17.69 0 32-14.31 32-32s-14.31-32-32-32h-64V64c0-17.69-14.31-32-32-32s-32 14.31-32 32v96C288 177.7 302.3 192 320 192zM128 32C110.3 32 96 46.31 96 64v64H32C14.31 128 0 142.3 0 160s14.31 32 32 32h96c17.69 0 32-14.31 32-32V64C160 46.31 145.7 32 128 32z"
     id="path9653" />
  <path
     style="fill:#808080;stroke:#000000;stroke-width:0.583808"
     d="m 25.395667,191.09785 c -4.370604,-0.82744 -10.881182,-4.19726 -14.501105,-7.50567 -10.7669058,-9.84034 -13.5534143,-24.59137 -7.165449,-37.93197 2.4039383,-5.02038 8.635936,-11.29203 13.78514,-13.87285 6.992082,-3.50449 8.436726,-3.62006 45.391106,-3.63127 l 33.423033,-0.0101 V 94.313798 c 0,-22.279293 0.218689,-34.888587 0.640421,-36.925883 2.414596,-11.664315 12.724877,-22.026162 24.310047,-24.431627 4.64227,-0.963889 13.02034,-0.422199 17.3528,1.121957 9.46931,3.375013 16.87993,11.31158 19.96649,21.383557 1.00854,3.291024 1.07346,6.715555 1.07346,56.629418 v 53.12657 l -1.29341,4.1109 c -3.40834,10.83294 -13.47281,19.85148 -24.35543,21.82438 -4.40668,0.79888 -104.38412,0.74806 -108.627103,-0.0552 z"
     id="path9794" />
  <path
     style="fill:#808080;stroke:#000000;stroke-width:0.583808"
     d="m 311.84787,190.59453 c -10.90676,-2.85692 -19.72083,-11.67894 -22.52164,-22.54197 -1.35127,-5.24094 -1.40162,-106.720278 -0.0555,-111.888324 1.42735,-5.479957 4.22389,-10.295018 8.4112,-14.482327 9.77784,-9.777838 23.76811,-12.050203 36.73992,-5.96747 4.03799,1.893493 11.39067,9.08614 13.66663,13.369176 3.57517,6.727969 3.56925,6.658902 3.80616,44.471687 l 0.21672,34.590648 h 33.13243 c 21.43547,0 34.3554,0.22497 36.59656,0.63725 12.90199,2.37338 23.60403,13.54959 25.47972,26.60865 1.90355,13.25303 -4.75388,26.39764 -16.4945,32.56716 -7.3589,3.867 -6.30699,3.8042 -63.31814,3.77978 -48.76794,-0.0209 -51.59257,-0.079 -55.65954,-1.14426 z"
     id="path9796" />
  <path
     style="fill:#808080;stroke:#000000;stroke-width:0.583808"
     d="m 311.91397,478.70013 c -10.83244,-2.91759 -19.80861,-11.98141 -22.64326,-22.86436 -1.3461,-5.16805 -1.29575,-106.64739 0.0555,-111.88833 1.34867,-5.23085 4.14378,-10.09057 8.12417,-14.12507 4.3374,-4.39638 8.74169,-6.93875 14.62867,-8.44438 4.35369,-1.11349 6.55394,-1.15872 55.95958,-1.15043 57.11249,0.01 55.33909,-0.10029 62.9517,3.90003 7.68207,4.03681 13.86881,12.08362 15.89315,20.67149 2.57951,10.94308 -0.83229,22.19426 -9.09332,29.9873 -4.12609,3.89235 -6.54336,5.38716 -12.16575,7.52316 -3.14252,1.19388 -4.28588,1.23598 -38.37614,1.41301 l -35.13712,0.18245 -0.23471,34.56518 c -0.25212,37.12885 -0.22372,36.77147 -3.46515,43.59796 -2.35649,4.96281 -9.29815,12.01757 -13.98948,14.21742 -6.99939,3.28215 -15.78671,4.22482 -22.50786,2.41457 z"
     id="path9798" />
  <path
     style="fill:#808080;stroke:#000000;stroke-width:0.583808"
     d="m 119.38883,478.54457 c -5.37782,-1.60009 -9.55268,-4.10911 -13.77582,-8.27906 -4.2264,-4.17316 -7.491754,-10.08626 -8.644197,-15.65342 -0.421732,-2.0373 -0.640421,-14.6466 -0.640421,-36.92589 v -33.83215 l -33.423033,-0.0101 c -36.957982,-0.0112 -38.405714,-0.12708 -45.386683,-3.63267 -2.248204,-1.12897 -5.363741,-3.4473 -7.6575478,-5.69813 C -0.93462748,363.91964 -2.7729569,347.09405 5.5031039,334.62564 10.07207,327.7422 18.224854,322.24573 25.940745,320.84693 c 4.78694,-0.86781 103.295085,-0.86781 108.082025,0 10.88262,1.9729 20.94709,10.99144 24.35543,21.82438 l 1.29341,4.1109 v 53.12657 c 0,49.91386 -0.0649,53.3384 -1.07346,56.62942 -3.08859,10.07861 -10.45995,17.9728 -19.94365,21.35822 -4.93362,1.76116 -14.44896,2.08128 -19.26567,0.64815 z"
     id="path9800" />
</svg>
