<?xml version="1.0" encoding="UTF-8" standalone="no"?>
<svg
   viewBox="0 0 512 512"
   version="1.1"
   id="svg1"
   sodipodi:docname="diamond-exclamation-white.svg"
   inkscape:version="1.4.3 (0d15f75, 2025-12-25)"
   xmlns:inkscape="http://www.inkscape.org/namespaces/inkscape"
   xmlns:sodipodi="http://sodipodi.sourceforge.net/DTD/sodipodi-0.dtd"
   xmlns="http://www.w3.org/2000/svg"
   xmlns:svg="http://www.w3.org/2000/svg">
  <defs
     id="defs1" />
  <sodipodi:namedview
     id="namedview1"
     pagecolor="#ffffff"
     bordercolor="#000000"
     borderopacity="0.25"
     inkscape:showpageshadow="2"
     inkscape:pageopacity="0.0"
     inkscape:pagecheckerboard="0"
     inkscape:deskcolor="#d1d1d1"
     inkscape:zoom="0.96679688"
     inkscape:cx="256"
     inkscape:cy="256"
     inkscape:window-width="1366"
     inkscape:window-height="697"
     inkscape:window-x="-8"
     inkscape:window-y="-8"
     inkscape:window-maximized="1"
     inkscape:current-layer="svg1" />
  <!--! Font Awesome Pro 6.1.1 by @fontawesome - https://fontawesome.com License - https://fontawesome.com/license (Commercial License) Copyright 2022 Fonticons, Inc. -->
  <path
     d="M497.7 222.6l-208.2-209.1c-19.01-18.02-50.05-18.02-68.06 0L14.27 222.6c-19.04 17.98-19.04 49.03 0 67.01l208.2 208.1c18.02 19.04 49.05 19.04 67.07 0l208.2-208.1C516.8 271.6 516.8 240.6 497.7 222.6zM232 151.1c0-13.25 10.75-24 24-24s24 10.75 24 24v112c0 13.25-10.75 24-24 24s-24-10.75-24-24V151.1zM256 383.1c-17.66 0-32-14.34-32-32s14.34-32 32-32s32 14.34 32 32S273.7 383.1 256 383.1z"
     id="path1" />
  <path
     style="fill:#ffffff;stroke-width:1.03434"
     d="m 244.13012,509.82468 c -3.11509,-0.8371 -7.76963,-2.72289 -10.34343,-4.19062 -2.91365,-1.66155 -46.17024,-44.09591 -114.6251,-112.44629 C 13.694131,287.8813 9.0600084,283.09632 5.3838056,275.70617 c -3.7543943,-7.54734 -3.8322904,-7.9468 -3.8322904,-19.65253 0,-19.24219 -0.2526331,-18.85674 37.6611458,-57.4597 C 127.79217,108.40427 224.45587,11.453461 228.481,8.7634183 243.57942,-1.3270252 264.47329,-1.904949 279.9207,7.3405975 c 7.49606,4.4865255 -0.20153,-3.0913706 122.3026,120.4008125 94.88145,95.64672 102.29658,103.37484 104.96507,109.39562 5.55251,12.52786 5.25108,26.72036 -0.829,39.03267 -3.35878,6.8016 -10.23867,13.89343 -113.52096,117.01807 -68.0843,67.98038 -111.71767,110.78794 -114.60003,112.43107 -9.78426,5.57766 -22.95823,7.20213 -34.10826,4.20584 z m 24.02863,-128.66316 c 6.71795,-2.5135 13.27788,-8.61042 17.02348,-15.82191 2.40365,-4.6278 2.79704,-6.62869 2.78793,-14.18001 -0.0124,-10.25139 -2.4219,-16.48002 -8.86946,-22.92759 -7.00009,-7.00009 -11.34105,-8.61989 -23.1007,-8.61989 -11.75965,0 -16.10061,1.6198 -23.1007,8.61989 -6.44756,6.44757 -8.85709,12.6762 -8.86946,22.92759 -0.009,7.56352 0.37582,9.51451 2.7551,13.96363 4.55344,8.5147 10.08915,13.60048 17.93113,16.47372 6.03664,2.21179 16.90699,2.00989 23.44268,-0.43543 z m -1.28458,-96.24136 c 4.93339,-2.46994 9.20805,-6.88001 11.48953,-11.85349 1.77181,-3.86244 1.89945,-8.18473 1.92066,-65.04364 0.0168,-45.03573 -0.30673,-62.01561 -1.24159,-65.16363 C 276.41649,134.01574 265.99,126.70707 256,126.70707 c -9.99,0 -20.41649,7.30867 -23.04277,16.15233 -0.93486,3.14802 -1.25838,20.1279 -1.24159,65.16363 0.0212,56.85891 0.14885,61.1812 1.92066,65.04364 5.78612,12.61339 20.93164,18.01468 33.23787,11.85349 z"
     id="path2" />
</svg>
