<?xml version="1.0" encoding="UTF-8" standalone="no"?>
<svg
   viewBox="0 0 512 512"
   version="1.1"
   id="svg9145"
   sodipodi:docname="download-bars-progress.svg"
   inkscape:version="1.4.3 (0d15f75, 2025-12-25)"
   xmlns:inkscape="http://www.inkscape.org/namespaces/inkscape"
   xmlns:sodipodi="http://sodipodi.sourceforge.net/DTD/sodipodi-0.dtd"
   xmlns="http://www.w3.org/2000/svg"
   xmlns:svg="http://www.w3.org/2000/svg">
  <defs
     id="defs9149" />
  <sodipodi:namedview
     id="namedview9147"
     pagecolor="#ffffff"
     bordercolor="#000000"
     borderopacity="0.25"
     inkscape:showpageshadow="2"
     inkscape:pageopacity="0.0"
     inkscape:pagecheckerboard="0"
     inkscape:deskcolor="#d1d1d1"
     showgrid="false"
     inkscape:zoom="0.8564453"
     inkscape:cx="414.504"
     inkscape:cy="253.95667"
     inkscape:window-width="1366"
     inkscape:window-height="697"
     inkscape:window-x="-8"
     inkscape:window-y="-8"
     inkscape:window-maximized="1"
     inkscape:current-layer="svg9145"
     showguides="true">
    <sodipodi:guide
       position="255.7081,389.40023"
       orientation="1,0"
       id="guide2"
       inkscape:locked="false" />
  </sodipodi:namedview>
  <!--! Font Awesome Pro 6.1.1 by @fontawesome - https://fontawesome.com License - https://fontawesome.com/license (Commercial License) Copyright 2022 Fonticons, Inc. -->
  <g
     id="g3"
     transform="matrix(0.85,0,0,0.85,38.77252,5.4838216)">
    <g
       id="g2"
       transform="matrix(0.6,0,0,0.6,102.4,4.330391)">
      <path
         d="M 480,352 H 346.5 l -45.25,45.25 C 289.2,409.3 273.1,416 256,416 c -17.1,0 -33.16,-6.656 -45.25,-18.75 L 165.5,352 H 32 C 14.33,352 0,366.33 0,384 v 96 c 0,17.67 14.33,32 32,32 h 448 c 17.67,0 32,-14.33 32,-32 v -96 c 0,-17.7 -14.3,-32 -32,-32 z m -48,104 c -13.2,0 -24,-10.8 -24,-24 0,-13.2 10.8,-24 24,-24 13.2,0 24,10.8 24,24 0,13.2 -10.8,24 -24,24 z M 233.4,374.6 c 6.2,6.3 14.4,9.4 22.6,9.4 8.2,0 16.38,-3.125 22.62,-9.375 l 128,-128 c 12.49,-12.5 12.49,-32.75 0,-45.25 -12.5,-12.5 -32.76,-12.5 -45.25,0 L 288,274.8 V 32 C 288,14.33 273.67,0 256,0 238.3,0 224,14.33 224,32 v 242.8 l -73.4,-73.4 c -12.49,-12.5 -32.75,-12.5 -45.25,0 -12.49,12.5 -12.49,32.75 0,45.25 z"
         id="path9143" />
      <path
         style="fill:#808080;stroke:#000000;stroke-width:0.583808"
         d="m 248.22986,382.7114 c -2.34701,-0.6366 -5.63093,-1.87109 -7.29761,-2.7433 -2.34727,-1.22838 -18.32854,-16.85823 -70.90077,-69.34167 -60.41757,-60.31553 -68.09272,-68.1788 -69.89449,-71.60756 -2.602498,-4.95257 -3.810782,-9.66273 -3.799968,-14.81314 0.01867,-8.89391 3.068111,-16.22284 9.397198,-22.58494 9.76946,-9.82042 24.12101,-12.04139 36.86502,-5.70504 3.19797,1.59004 8.36901,6.52904 42.18203,40.28916 21.1955,21.16233 38.73164,38.47696 38.96922,38.47696 0.23757,0 0.43651,-55.23558 0.44209,-122.74572 0.0112,-135.688163 -0.23486,-126.987688 3.80906,-134.683294 3.63118,-6.910141 9.51831,-12.1071102 17.0459,-15.0475742 3.43408,-1.34143336 4.81888,-1.54436838 10.66056,-1.5622509 5.5271,-0.0169194 7.38453,0.21482761 10.50855,1.311128 7.61526,2.6723993 14.06088,8.2179641 17.78171,15.2986971 4.04392,7.695606 3.79786,-1.004869 3.80906,134.683294 0.006,67.51014 0.20718,122.75285 0.448,122.76158 0.24082,0.009 17.25154,-16.92277 37.80159,-37.62552 24.81528,-24.99967 38.44212,-38.30849 40.57469,-39.62773 5.15977,-3.19193 9.59181,-4.60033 15.47092,-4.91633 9.76573,-0.5249 17.41936,2.38461 24.31308,9.24256 9.76766,9.71697 12.00701,24.19127 5.70379,36.86698 -1.61275,3.24322 -9.18607,11.02581 -69.04073,70.94841 -36.9761,37.01808 -68.49589,68.12339 -70.04398,69.12291 -7.11108,4.59126 -16.84401,6.16172 -24.80492,4.00239 z"
         id="path9268" />
      <path
         style="fill:#808080;stroke:#000000;stroke-width:0.583808"
         d="M 24.392476,510.80148 C 14.000969,508.28223 5.1362293,499.93318 1.6932454,489.42271 l -1.40134118,-4.2779 V 432.01824 378.89168 L 1.5853091,374.78077 C 4.8956173,364.25943 14.03816,355.71169 24.659912,353.20736 c 3.112446,-0.73384 13.832018,-0.86299 72.236999,-0.87034 l 68.582209,-0.009 24.82714,24.72334 c 13.84105,13.78318 26.50634,25.89486 28.6219,27.37083 11.16664,7.79065 23.21335,11.54095 37.07184,11.54095 13.85849,0 25.9052,-3.7503 37.07184,-11.54095 2.11556,-1.47597 14.78085,-13.58765 28.6219,-27.37083 l 24.82714,-24.72334 68.58221,0.009 c 58.40498,0.007 69.12455,0.1365 72.237,0.87034 10.6711,2.51596 19.74891,11.0032 23.0746,21.57341 l 1.29341,4.11091 v 53.12656 53.12657 l -1.40134,4.2779 c -3.48908,10.65116 -12.3402,18.90098 -22.96667,21.40642 -5.33565,1.25801 -457.75593,1.23098 -462.947614,-0.0277 z M 442.1126,453.74815 c 5.20199,-2.49844 9.1846,-6.41632 11.68473,-11.4948 1.75632,-3.56758 1.86516,-4.16484 1.86516,-10.23511 0,-6.08694 -0.10532,-6.66037 -1.88857,-10.28265 -7.45845,-15.15027 -26.7767,-18.55241 -38.7002,-6.8155 -7.28738,7.17333 -9.18815,18.40876 -4.67514,27.63465 5.84495,11.94875 19.84966,16.89169 31.71402,11.19341 z"
         id="path9270" />
    </g>
    <g
       id="g1"
       transform="matrix(0.6,0,0,0.6,102.89715,313.73866)">
      <path
         d="m 464,64 c 26.5,0 48,21.49 48,48 v 64 c 0,26.5 -21.5,48 -48,48 H 48 C 21.49,224 0,202.5 0,176 V 112 C 0,85.49 21.49,64 48,64 Z m -16,64 H 320 v 32 h 128 z m 16,160 c 26.5,0 48,21.5 48,48 v 64 c 0,26.5 -21.5,48 -48,48 H 48 C 21.49,448 0,426.5 0,400 v -64 c 0,-26.5 21.49,-48 48,-48 z m -272,64 v 32 h 256 v -32 z"
         id="path1" />
      <path
         style="fill:#808080;stroke-width:1.03434"
         d="M 41.373737,222.87904 C 21.833656,219.79043 7.0946132,206.34514 2.0600687,187.01622 c -2.25702093,-8.66528 -2.213,-76.47183 0.055896,-86.09774 C 6.0282154,84.320552 19.545282,70.579967 36.238183,66.232019 41.61218,64.832271 67.365343,64.646465 256,64.646465 c 233.42053,0 219.3703,-0.355136 230.73844,5.832181 6.30762,3.43304 14.75644,11.864842 18.57314,18.535734 5.57157,9.738092 6.13912,14.83815 6.15596,55.3178 0.0122,29.28607 -0.29843,37.96489 -1.52761,42.68404 -4.24669,16.30415 -14.79537,27.85194 -31.12242,34.07016 l -6.12256,2.3318 -213.07475,0.13916 c -117.19111,0.0765 -215.402018,-0.22869 -218.246463,-0.6783 z M 448.38788,144.29091 v -16.5495 h -64.64647 -64.64646 v 16.5495 16.54949 h 64.64646 64.64647 z"
         id="path2" />
      <path
         style="fill:#808080;stroke-width:1.03434"
         d="M 35.793073,445.71667 C 24.124295,442.57876 12.869107,433.78834 6.6884205,422.98562 1.116849,413.24753 0.54929594,408.14746 0.53246045,367.66782 0.52028033,338.38175 0.83088425,329.70293 2.0600687,324.98377 7.0263469,305.91694 22.457669,291.88654 41.487439,289.13579 c 9.742476,-1.40828 419.282651,-1.40828 429.025121,0 19.02978,2.75075 34.46109,16.78115 39.42737,35.84798 2.25702,8.66529 2.213,76.47184 -0.0559,86.09775 -3.91225,16.59792 -17.42931,30.33851 -34.12221,34.68646 -5.37839,1.40089 -31.02835,1.57763 -220.23772,1.51749 -183.729284,-0.0584 -214.943123,-0.28126 -219.731027,-1.5688 z M 448.38788,367.70909 V 351.1596 H 320.12929 191.87071 v 16.54949 16.5495 h 128.25858 128.25859 z"
         id="path3" />
    </g>
  </g>
</svg>
