<?xml version="1.0" encoding="UTF-8" standalone="no"?>
<svg
   viewBox="0 0 512 512"
   version="1.1"
   id="svg1"
   sodipodi:docname="download.svg"
   inkscape:version="1.4.3 (0d15f75, 2025-12-25)"
   xmlns:inkscape="http://www.inkscape.org/namespaces/inkscape"
   xmlns:sodipodi="http://sodipodi.sourceforge.net/DTD/sodipodi-0.dtd"
   xmlns="http://www.w3.org/2000/svg"
   xmlns:svg="http://www.w3.org/2000/svg">
  <defs
     id="defs1" />
  <sodipodi:namedview
     id="namedview1"
     pagecolor="#ffffff"
     bordercolor="#000000"
     borderopacity="0.25"
     inkscape:showpageshadow="2"
     inkscape:pageopacity="0.0"
     inkscape:pagecheckerboard="0"
     inkscape:deskcolor="#d1d1d1"
     inkscape:zoom="0.96679688"
     inkscape:cx="255.48283"
     inkscape:cy="256"
     inkscape:window-width="1366"
     inkscape:window-height="697"
     inkscape:window-x="-8"
     inkscape:window-y="-8"
     inkscape:window-maximized="1"
     inkscape:current-layer="svg1" />
  <!--! Font Awesome Pro 6.1.1 by @fontawesome - https://fontawesome.com License - https://fontawesome.com/license (Commercial License) Copyright 2022 Fonticons, Inc. -->
  <path
     d="M480 352h-133.5l-45.25 45.25C289.2 409.3 273.1 416 256 416s-33.16-6.656-45.25-18.75L165.5 352H32c-17.67 0-32 14.33-32 32v96c0 17.67 14.33 32 32 32h448c17.67 0 32-14.33 32-32v-96C512 366.3 497.7 352 480 352zM432 456c-13.2 0-24-10.8-24-24c0-13.2 10.8-24 24-24s24 10.8 24 24C456 445.2 445.2 456 432 456zM233.4 374.6C239.6 380.9 247.8 384 256 384s16.38-3.125 22.62-9.375l128-128c12.49-12.5 12.49-32.75 0-45.25c-12.5-12.5-32.76-12.5-45.25 0L288 274.8V32c0-17.67-14.33-32-32-32C238.3 0 224 14.33 224 32v242.8L150.6 201.4c-12.49-12.5-32.75-12.5-45.25 0c-12.49 12.5-12.49 32.75 0 45.25L233.4 374.6z"
     id="path1" />
  <path
     style="fill:#808080;stroke-width:1.03434"
     d="m 247.72525,382.31847 c -1.42222,-0.468 -4.44767,-1.82088 -6.72323,-3.00641 -6.01471,-3.13359 -138.205,-135.87676 -141.339099,-141.93024 -1.965083,-3.79555 -2.412107,-6.2771 -2.422228,-13.44647 -0.01103,-7.81167 0.327379,-9.4053 3.035187,-14.29343 3.70618,-6.69042 8.49655,-11.04546 15.85521,-14.41437 4.64858,-2.12819 6.75765,-2.47778 12.97649,-2.15094 12.81733,0.67361 13.47669,1.1869 56.51624,43.99539 21.33381,21.21929 38.91411,38.58053 39.06732,38.58053 0.1532,0 0.27856,-56.47838 0.27856,-125.50753 V 24.637487 l 3.15147,-6.30665 C 233.90197,6.7624306 243.08836,1.0771377 256,1.0771377 c 12.91164,0 22.09803,5.6852929 27.87883,17.2536993 l 3.15147,6.30665 V 150.145 c 0,69.02915 0.33892,125.50753 0.75314,125.50753 0.41422,0 18.21786,-17.64751 39.56364,-39.21667 36.47956,-36.86134 39.17002,-39.34623 44.79677,-41.37374 16.18137,-5.83073 32.13931,0.39453 40.28183,15.71411 3.38048,6.36015 3.33197,20.00363 -0.0946,26.60559 -3.62895,6.99187 -135.41965,138.86608 -142.36743,142.45765 -5.52353,2.85532 -17.15455,4.15187 -22.23839,2.479 z"
     id="path2" />
  <path
     style="fill:#808080;stroke-width:1.03434"
     d="M 24.307071,510.52023 C 15.670711,507.86814 7.8623664,501.2516 3.4712823,492.86465 L 1.0343434,488.2101 v -55.85454 c 0,-54.86993 0.038971,-55.93883 2.2107314,-60.6357 3.1731594,-6.8626 8.9817922,-12.82242 15.7242212,-16.1335 l 5.854946,-2.87525 69.75528,-0.29352 69.755278,-0.29351 24.36998,24.15923 c 26.98241,26.74908 29.97219,29.31018 39.44704,33.79108 14.23345,6.73136 34.05462,8.08659 47.78546,3.26722 14.19246,-4.98139 17.56309,-7.58638 45.33635,-35.03819 l 26.48575,-26.1792 69.70819,0.29345 69.70819,0.29344 5.85494,2.87525 c 6.74243,3.31108 12.55106,9.2709 15.72422,16.1335 2.17176,4.69687 2.21074,5.76577 2.21074,60.6357 v 55.85454 l -2.75508,5.17172 c -3.30201,6.19838 -9.00419,11.82661 -15.34593,15.1469 l -4.65455,2.43694 -230.65858,0.17431 c -126.86223,0.0959 -231.822227,-0.183 -233.244449,-0.61974 z M 438.87503,455.44146 c 7.1099,-1.79029 14.94935,-9.8775 16.71682,-17.24516 3.87978,-16.17273 -7.21803,-30.35468 -23.75347,-30.35468 -13.98104,0 -23.99676,9.93589 -23.99676,23.8055 0,11.84948 6.47833,20.61005 17.78401,24.04908 3.88105,1.18057 7.85256,1.1042 13.2494,-0.25474 z"
     id="path3" />
</svg>
