<?xml version="1.0" encoding="UTF-8" standalone="no"?>
<svg
   viewBox="0 0 512 512"
   version="1.1"
   id="svg1"
   sodipodi:docname="download-ballot-check.svg"
   inkscape:version="1.4.3 (0d15f75, 2025-12-25)"
   xmlns:inkscape="http://www.inkscape.org/namespaces/inkscape"
   xmlns:sodipodi="http://sodipodi.sourceforge.net/DTD/sodipodi-0.dtd"
   xmlns="http://www.w3.org/2000/svg"
   xmlns:svg="http://www.w3.org/2000/svg">
  <defs
     id="defs1" />
  <sodipodi:namedview
     id="namedview1"
     pagecolor="#ffffff"
     bordercolor="#000000"
     borderopacity="0.25"
     inkscape:showpageshadow="2"
     inkscape:pageopacity="0.0"
     inkscape:pagecheckerboard="0"
     inkscape:deskcolor="#d1d1d1"
     inkscape:zoom="0.96679688"
     inkscape:cx="255.48283"
     inkscape:cy="256"
     inkscape:window-width="1366"
     inkscape:window-height="697"
     inkscape:window-x="-8"
     inkscape:window-y="-8"
     inkscape:window-maximized="1"
     inkscape:current-layer="svg1" />
  <!--! Font Awesome Pro 6.1.1 by @fontawesome - https://fontawesome.com License - https://fontawesome.com/license (Commercial License) Copyright 2022 Fonticons, Inc. -->
  <g
     id="g3"
     transform="matrix(0.48029801,0,0,0.48029801,133.04371,3.0437107)">
    <path
       d="M 480,352 H 346.5 l -45.25,45.25 C 289.2,409.3 273.1,416 256,416 c -17.1,0 -33.16,-6.656 -45.25,-18.75 L 165.5,352 H 32 C 14.33,352 0,366.33 0,384 v 96 c 0,17.67 14.33,32 32,32 h 448 c 17.67,0 32,-14.33 32,-32 v -96 c 0,-17.7 -14.3,-32 -32,-32 z m -48,104 c -13.2,0 -24,-10.8 -24,-24 0,-13.2 10.8,-24 24,-24 13.2,0 24,10.8 24,24 0,13.2 -10.8,24 -24,24 z M 233.4,374.6 c 6.2,6.3 14.4,9.4 22.6,9.4 8.2,0 16.38,-3.125 22.62,-9.375 l 128,-128 c 12.49,-12.5 12.49,-32.75 0,-45.25 -12.5,-12.5 -32.76,-12.5 -45.25,0 L 288,274.8 V 32 C 288,14.33 273.67,0 256,0 238.3,0 224,14.33 224,32 v 242.8 l -73.4,-73.4 c -12.49,-12.5 -32.75,-12.5 -45.25,0 -12.49,12.5 -12.49,32.75 0,45.25 z"
       id="path1" />
    <path
       style="fill:#808080;stroke-width:1.03434"
       d="m 247.72525,382.31847 c -1.42222,-0.468 -4.44767,-1.82088 -6.72323,-3.00641 -6.01471,-3.13359 -138.205,-135.87676 -141.339099,-141.93024 -1.965083,-3.79555 -2.412107,-6.2771 -2.422228,-13.44647 -0.01103,-7.81167 0.327379,-9.4053 3.035187,-14.29343 3.70618,-6.69042 8.49655,-11.04546 15.85521,-14.41437 4.64858,-2.12819 6.75765,-2.47778 12.97649,-2.15094 12.81733,0.67361 13.47669,1.1869 56.51624,43.99539 21.33381,21.21929 38.91411,38.58053 39.06732,38.58053 0.1532,0 0.27856,-56.47838 0.27856,-125.50753 V 24.637487 l 3.15147,-6.30665 C 233.90197,6.7624306 243.08836,1.0771377 256,1.0771377 c 12.91164,0 22.09803,5.6852929 27.87883,17.2536993 l 3.15147,6.30665 V 150.145 c 0,69.02915 0.33892,125.50753 0.75314,125.50753 0.41422,0 18.21786,-17.64751 39.56364,-39.21667 36.47956,-36.86134 39.17002,-39.34623 44.79677,-41.37374 16.18137,-5.83073 32.13931,0.39453 40.28183,15.71411 3.38048,6.36015 3.33197,20.00363 -0.0946,26.60559 -3.62895,6.99187 -135.41965,138.86608 -142.36743,142.45765 -5.52353,2.85532 -17.15455,4.15187 -22.23839,2.479 z"
       id="path3" />
    <path
       style="fill:#808080;stroke-width:1.03434"
       d="M 24.307071,510.52023 C 15.670711,507.86814 7.8623664,501.2516 3.4712823,492.86465 L 1.0343434,488.2101 v -55.85454 c 0,-54.86993 0.038971,-55.93883 2.2107314,-60.6357 3.1731594,-6.8626 8.9817922,-12.82242 15.7242212,-16.1335 l 5.854946,-2.87525 69.75528,-0.29352 69.755278,-0.29351 24.36998,24.15923 c 26.98241,26.74908 29.97219,29.31018 39.44704,33.79108 14.23345,6.73136 34.05462,8.08659 47.78546,3.26722 14.19246,-4.98139 17.56309,-7.58638 45.33635,-35.03819 l 26.48575,-26.1792 69.70819,0.29345 69.70819,0.29344 5.85494,2.87525 c 6.74243,3.31108 12.55106,9.2709 15.72422,16.1335 2.17176,4.69687 2.21074,5.76577 2.21074,60.6357 v 55.85454 l -2.75508,5.17172 c -3.30201,6.19838 -9.00419,11.82661 -15.34593,15.1469 l -4.65455,2.43694 -230.65858,0.17431 c -126.86223,0.0959 -231.822227,-0.183 -233.244449,-0.61974 z M 438.87503,455.44146 c 7.1099,-1.79029 14.94935,-9.8775 16.71682,-17.24516 3.87978,-16.17273 -7.21803,-30.35468 -23.75347,-30.35468 -13.98104,0 -23.99676,9.93589 -23.99676,23.8055 0,11.84948 6.47833,20.61005 17.78401,24.04908 3.88105,1.18057 7.85256,1.1042 13.2494,-0.25474 z"
       id="path2" />
  </g>
  <g
     id="g4"
     transform="matrix(0.5,0,0,0.5,143.0303,253.91515)">
    <path
       d="M 384,0 H 64 C 28.65,0 0,28.65 0,64 v 384 c 0,35.35 28.65,64 64,64 h 320 c 35.35,0 64,-28.65 64,-64 V 64 C 448,28.65 419.3,0 384,0 Z M 64,112 c 0,-8.7 7.25,-16 16,-16 h 32 c 8.8,0 16,7.3 16,16 v 32 c 0,8.8 -7.2,16 -16,16 H 80 c -8.75,0 -16,-7.2 -16,-16 z m 64,288 c 0,8.8 -7.2,16 -16,16 H 80 c -8.75,0 -16,-7.2 -16,-16 v -32 c 0,-8.7 7.25,-16 16,-16 h 32 c 8.8,0 16,7.3 16,16 z m 35.3,-172.7 -56,56 c -3.1,3.1 -7.2,4.7 -11.3,4.7 -4.1,0 -8.19,-1.6 -11.31,-4.7 l -24,-24 c -6.25,-6.25 -6.25,-16.38 0,-22.62 6.25,-6.24 16.38,-6.25 22.62,0 L 96,249.4 140.69,204.71 c 6.25,-6.25 16.38,-6.25 22.62,0 6.24,6.25 6.29,16.39 -0.01,22.59 z M 368,400 H 208 c -8.8,0 -16,-7.2 -16,-16 0,-8.8 7.164,-16 16,-16 h 160 c 8.836,0 16,7.164 16,16 0,8.836 -7.2,16 -16,16 z m 0,-128 H 208 c -8.8,0 -16,-7.2 -16,-16 0,-8.8 7.164,-16 16,-16 h 160 c 8.8,0 16,7.2 16,16 0,8.8 -7.2,16 -16,16 z m 0,-128 H 208 c -8.8,0 -16,-7.2 -16,-16 0,-8.8 7.164,-16 16,-16 h 160 c 8.8,0 16,7.2 16,16 0,8.8 -7.2,16 -16,16 z"
       id="path1-8" />
    <path
       style="fill:#808080;stroke-width:1.03434"
       d="M 50.339161,509.89669 C 27.346158,504.90585 6.9653099,484.34235 2.058788,461.18364 -0.2028875,450.50855 -0.2028875,61.491444 2.058788,50.816366 7.0183949,27.407088 27.407088,7.0183949 50.816366,2.058788 61.528022,-0.21063714 386.37439,-0.19708876 397.18788,2.0732342 c 11.992,2.5177543 21.54855,7.8953675 31.06808,17.4824928 9.49985,9.567305 14.02074,17.296661 17.05429,29.157723 2.00011,7.820354 2.04329,12.20068 2.04329,207.28655 0,195.08587 -0.0432,199.46619 -2.04329,207.28655 -3.03355,11.86107 -7.55444,19.59041 -17.05429,29.15772 -9.51953,9.58713 -19.07608,14.96474 -31.06808,17.48249 -10.45749,2.19558 -336.725379,2.16729 -346.848719,-0.0301 z M 119.46457,414.7728 c 1.649,-0.85273 4.30226,-3.25881 5.89611,-5.34684 l 2.89791,-3.79641 0.33801,-20.02111 c 0.31651,-18.74822 0.19676,-20.31288 -1.8835,-24.61012 -1.33276,-2.75312 -3.74388,-5.53565 -6.02689,-6.95527 -3.56093,-2.21426 -5.06791,-2.38615 -23.457927,-2.67555 -18.797601,-0.29581 -19.852373,-0.20583 -24.246517,2.06869 -8.540825,4.42092 -8.808356,5.27733 -9.170321,29.3558 -0.30188,20.08164 -0.205315,21.34397 1.922359,25.12965 4.279443,7.61425 6.939134,8.35079 30.252915,8.37783 16.210181,0.0188 21.104691,-0.29946 23.477851,-1.52667 z M 377.35885,397.393 c 5.36413,-4.09195 7.2237,-8.17944 6.68369,-14.69131 -0.52689,-6.35366 -3.43357,-10.93157 -8.45324,-13.31356 -3.17458,-1.50644 -12.18782,-1.67887 -87.68097,-1.67744 -78.04343,0.002 -84.4036,0.13271 -87.74226,1.81011 -5.24253,2.63394 -8.29536,7.75223 -8.29536,13.90777 0,7.77133 4.41195,14.32726 10.984,16.32163 1.6388,0.49732 40.7179,0.82242 86.84245,0.72245 l 83.86283,-0.18174 z M 103.74429,286.58133 c 3.3629,-1.78593 61.56479,-60.13562 63.19325,-63.35374 1.59801,-3.15791 1.42591,-11.26385 -0.30997,-14.60017 -3.5962,-6.91179 -10.89109,-10.23917 -18.63403,-8.49945 -3.45327,0.77591 -7.65723,4.49999 -27.93234,24.74395 l -23.867261,23.83057 -7.779843,-7.62552 c -5.725339,-5.61177 -8.93485,-7.93653 -12.153535,-8.80324 -11.81532,-3.18153 -22.71643,7.07002 -20.449019,19.23054 0.616562,3.30673 3.128094,6.40079 14.873224,18.32298 7.772268,7.88943 15.527759,15.2186 17.234426,16.28704 3.747046,2.34581 11.837782,2.58458 15.825098,0.46704 z m 271.72256,-16.10062 c 11.62511,-5.62761 11.62511,-23.33381 0,-28.96142 -4.16512,-2.01631 -6.38628,-2.06878 -87.56608,-2.06878 H 204.6082 l -4.44969,2.35304 c -6.07212,3.21102 -8.52276,7.86686 -8.04163,15.27779 0.44409,6.84022 2.74482,10.44094 8.54575,13.37434 4.05071,2.04837 5.87996,2.0922 87.33404,2.093 81.08477,7.9e-4 83.30514,-0.0517 87.47018,-2.06797 z M 120.68621,157.95695 c 2.28301,-1.41962 4.69413,-4.20215 6.02689,-6.95527 2.08026,-4.29724 2.20001,-5.8619 1.8835,-24.61012 l -0.33801,-20.02111 -2.89791,-3.79641 c -4.99301,-6.541084 -6.50265,-6.897272 -29.233131,-6.897272 -23.20716,0 -26.124194,0.804944 -30.384068,8.384362 -2.139722,3.80712 -2.234319,5.03837 -1.932036,25.14688 0.361965,24.07847 0.629496,24.93488 9.170321,29.3558 4.394144,2.27452 5.448916,2.3645 24.246517,2.06869 18.390017,-0.2894 19.896997,-0.46129 23.457927,-2.67555 z M 375.5893,142.61187 c 5.20312,-2.46904 7.97613,-6.98737 8.45005,-13.76847 0.44627,-6.38559 -1.72023,-10.79498 -7.3556,-14.97051 -2.90787,-2.15459 -3.28493,-2.1638 -88.6191,-2.1638 -85.33417,0 -85.71123,0.009 -88.6191,2.1638 -10.56063,7.82489 -10.20337,22.71739 0.68377,28.50282 3.42268,1.81882 7.83943,1.9152 87.76287,1.9152 75.5059,0 84.5226,-0.17263 87.69711,-1.67904 z"
       id="path2-8" />
  </g>
</svg>
