<?xml version="1.0" encoding="UTF-8" standalone="no"?>
<svg
   viewBox="0 0 448 512"
   version="1.1"
   id="svg9530"
   sodipodi:docname="expand.svg"
   inkscape:version="1.2.1 (9c6d41e410, 2022-07-14)"
   xmlns:inkscape="http://www.inkscape.org/namespaces/inkscape"
   xmlns:sodipodi="http://sodipodi.sourceforge.net/DTD/sodipodi-0.dtd"
   xmlns="http://www.w3.org/2000/svg"
   xmlns:svg="http://www.w3.org/2000/svg">
  <defs
     id="defs9534" />
  <sodipodi:namedview
     id="namedview9532"
     pagecolor="#ffffff"
     bordercolor="#000000"
     borderopacity="0.25"
     inkscape:showpageshadow="2"
     inkscape:pageopacity="0.0"
     inkscape:pagecheckerboard="0"
     inkscape:deskcolor="#d1d1d1"
     showgrid="false"
     inkscape:zoom="1.7128906"
     inkscape:cx="224.18244"
     inkscape:cy="256.2919"
     inkscape:window-width="1920"
     inkscape:window-height="1057"
     inkscape:window-x="-8"
     inkscape:window-y="-8"
     inkscape:window-maximized="1"
     inkscape:current-layer="svg9530" />
  <!--! Font Awesome Pro 6.1.1 by @fontawesome - https://fontawesome.com License - https://fontawesome.com/license (Commercial License) Copyright 2022 Fonticons, Inc. -->
  <path
     d="M128 32H32C14.31 32 0 46.31 0 64v96c0 17.69 14.31 32 32 32s32-14.31 32-32V96h64c17.69 0 32-14.31 32-32S145.7 32 128 32zM416 32h-96c-17.69 0-32 14.31-32 32s14.31 32 32 32h64v64c0 17.69 14.31 32 32 32s32-14.31 32-32V64C448 46.31 433.7 32 416 32zM128 416H64v-64c0-17.69-14.31-32-32-32s-32 14.31-32 32v96c0 17.69 14.31 32 32 32h96c17.69 0 32-14.31 32-32S145.7 416 128 416zM416 320c-17.69 0-32 14.31-32 32v64h-64c-17.69 0-32 14.31-32 32s14.31 32 32 32h96c17.69 0 32-14.31 32-32v-96C448 334.3 433.7 320 416 320z"
     id="path9528" />
  <path
     style="fill:#808080;stroke:#000000;stroke-width:0.583808"
     d="M 25.395667,191.09785 C 15.246219,189.17638 5.7178782,180.63243 1.8088353,169.94783 L 0.29190422,165.8016 V 112.38312 58.964652 L 1.5853091,54.853751 C 4.5903442,45.302677 12.357532,37.213714 21.600912,34.008949 l 3.794755,-1.315676 h 54.586089 c 61.416994,0 57.544824,-0.266684 64.869824,4.467692 9.46109,6.115 14.70983,15.665613 14.70983,26.766059 0,14.306074 -8.82636,26.115441 -22.95024,30.706631 -2.90358,0.94386 -6.55001,1.06486 -38.093496,1.264056 L 63.63512,96.117994 v 33.791396 c 0,22.12652 -0.219868,34.85937 -0.636924,36.88514 -1.102166,5.35357 -4.491139,11.45411 -8.693656,15.64959 -7.520194,7.50761 -18.152045,10.6902 -28.908873,8.65373 z"
     id="path9778" />
  <path
     style="fill:#808080;stroke:#000000;stroke-width:0.583808"
     d="M 25.05246,478.99235 C 13.962057,476.32511 4.9923369,467.975 1.5853091,457.14625 l -1.29340488,-4.1109 V 399.61688 346.1984 L 1.8088353,342.05217 C 6.6677439,328.7713 18.656668,320.21893 32.415203,320.21893 c 4.216424,0 11.467266,1.9744 15.371069,4.18554 7.164279,4.05789 13.567564,12.81384 15.211924,20.801 0.417056,2.02577 0.636924,14.75862 0.636924,36.88514 v 33.7914 l 34.882554,0.22028 c 31.543486,0.19919 35.189916,0.32019 38.093496,1.26406 14.11757,4.58913 23.01001,16.47948 22.96461,30.70663 -0.0431,13.49221 -8.12448,25.04323 -20.92128,29.90338 l -3.50285,1.33037 -54.002277,0.0947 c -29.701254,0.0521 -54.944865,-0.132 -56.096913,-0.40907 z"
     id="path9780" />
  <path
     style="fill:#808080;stroke:#000000;stroke-width:0.583808"
     d="m 311.91397,478.70013 c -10.97181,-2.95512 -19.86323,-12.03208 -22.7238,-23.19798 -1.99486,-7.78671 -0.10512,-18.61585 4.37928,-25.09543 4.01044,-5.79474 10.42082,-10.63612 16.97453,-12.81987 3.74418,-1.24759 4.67952,-1.28363 38.71942,-1.49166 l 34.88255,-0.21318 V 382.7529 c 0,-21.43306 0.22498,-34.35209 0.63725,-36.59323 2.69266,-14.63761 16.38455,-25.91489 31.47222,-25.92198 11.06411,-0.005 22.42713,6.89564 27.61699,16.77196 4.00031,7.61261 3.89045,5.83921 3.90003,62.9517 0.008,49.40564 -0.0369,51.60589 -1.15043,55.95958 -1.5113,5.90912 -4.04827,10.29002 -8.51626,14.70606 -3.86321,3.8183 -8.89723,6.67591 -14.28729,8.11033 -4.65566,1.23897 -107.29298,1.20486 -111.90449,-0.0372 z"
     id="path9782" />
  <path
     style="fill:#808080;stroke:#000000;stroke-width:0.583808"
     d="m 408.90581,190.91478 c -5.63689,-1.22649 -10.53367,-4.04403 -15.28698,-8.79593 -4.75421,-4.75281 -7.72086,-10.21848 -8.83563,-16.27852 -0.41228,-2.24116 -0.63725,-15.16109 -0.63725,-36.59656 V 96.111344 L 349.5553,95.876548 c -37.15628,-0.252211 -36.79661,-0.22364 -43.62345,-3.465236 -4.9628,-2.356495 -12.01755,-9.298149 -14.21741,-13.989482 -6.08273,-12.971812 -3.81037,-26.962083 5.96747,-36.739921 4.18731,-4.187308 9.00237,-6.98385 14.48233,-8.411197 5.16804,-1.346105 106.64738,-1.295748 111.88832,0.05552 5.23085,1.348667 10.09057,4.143778 14.12507,8.124165 4.39638,4.337405 6.93875,8.741692 8.44438,14.628667 1.11331,4.352982 1.15866,6.55052 1.14893,55.667686 -0.0113,56.79453 0.0541,55.72174 -3.84721,63.14595 -6.54486,12.45489 -21.00509,19.07101 -35.01792,16.02208 z"
     id="path9784" />
</svg>
