<?xml version="1.0" encoding="UTF-8" standalone="no"?>
<svg
   viewBox="0 0 576 512"
   version="1.1"
   id="svg1"
   sodipodi:docname="eye.svg"
   inkscape:version="1.4.3 (0d15f75, 2025-12-25)"
   xmlns:inkscape="http://www.inkscape.org/namespaces/inkscape"
   xmlns:sodipodi="http://sodipodi.sourceforge.net/DTD/sodipodi-0.dtd"
   xmlns="http://www.w3.org/2000/svg"
   xmlns:svg="http://www.w3.org/2000/svg">
  <defs
     id="defs1" />
  <sodipodi:namedview
     id="namedview1"
     pagecolor="#ffffff"
     bordercolor="#000000"
     borderopacity="0.25"
     inkscape:showpageshadow="2"
     inkscape:pageopacity="0.0"
     inkscape:pagecheckerboard="0"
     inkscape:deskcolor="#d1d1d1"
     inkscape:zoom="0.96679688"
     inkscape:cx="287.54747"
     inkscape:cy="256"
     inkscape:window-width="1366"
     inkscape:window-height="697"
     inkscape:window-x="-8"
     inkscape:window-y="-8"
     inkscape:window-maximized="1"
     inkscape:current-layer="svg1" />
  <!--! Font Awesome Pro 6.1.1 by @fontawesome - https://fontawesome.com License - https://fontawesome.com/license (Commercial License) Copyright 2022 Fonticons, Inc. -->
  <path
     d="M279.6 160.4C282.4 160.1 285.2 160 288 160C341 160 384 202.1 384 256C384 309 341 352 288 352C234.1 352 192 309 192 256C192 253.2 192.1 250.4 192.4 247.6C201.7 252.1 212.5 256 224 256C259.3 256 288 227.3 288 192C288 180.5 284.1 169.7 279.6 160.4zM480.6 112.6C527.4 156 558.7 207.1 573.5 243.7C576.8 251.6 576.8 260.4 573.5 268.3C558.7 304 527.4 355.1 480.6 399.4C433.5 443.2 368.8 480 288 480C207.2 480 142.5 443.2 95.42 399.4C48.62 355.1 17.34 304 2.461 268.3C-.8205 260.4-.8205 251.6 2.461 243.7C17.34 207.1 48.62 156 95.42 112.6C142.5 68.84 207.2 32 288 32C368.8 32 433.5 68.84 480.6 112.6V112.6zM288 112C208.5 112 144 176.5 144 256C144 335.5 208.5 400 288 400C367.5 400 432 335.5 432 256C432 176.5 367.5 112 288 112z"
     id="path1" />
  <path
     style="fill:#808080;stroke-width:1.03434"
     d="M 261.68889,478.20449 C 234.35177,475.45865 200.95438,465.83266 174.80404,453.16203 120.60224,426.89962 73.762464,384.40853 34.997473,326.33535 19.394677,302.96106 3.5818373,272.64686 1.2884378,261.713 -0.4892854,253.23765 1.3195027,246.67504 10.732316,227.44889 46.928198,153.51698 107.54437,91.226543 174.76226,58.888327 209.43667,42.206628 241.8371,34.194504 279.7899,32.916616 369.77399,29.88681 454.28995,73.648541 521.57741,158.1124 c 19.71642,24.7494 41.08924,60.3428 51.01505,84.95831 3.82923,9.49631 3.37389,18.195 -1.54308,29.47878 -15.0357,34.50494 -42.65015,75.48406 -72.60046,107.73718 -46.60107,50.18413 -102.76338,83.02052 -161.33493,94.3276 -24.19056,4.66992 -51.65874,5.9774 -75.4251,3.59022 z m 51.46772,-79.96709 c 19.31761,-3.36998 40.82475,-12.16639 57.47573,-23.50756 10.04422,-6.84123 29.06931,-25.85403 36.00563,-35.98237 11.44701,-16.7148 20.10053,-37.86672 23.72532,-57.99208 2.34453,-13.01727 2.35961,-36.49562 0.0318,-49.57963 -3.46188,-19.4587 -12.47355,-41.42613 -23.76173,-57.92323 -7.66787,-11.20618 -26.18177,-29.40566 -37.6658,-37.02614 -59.47172,-39.463653 -136.76881,-30.9633 -185.66429,20.41748 -26.10498,27.43187 -39.40713,60.97021 -39.40713,99.35613 0,30.06821 7.54912,55.50893 23.64636,79.68887 27.88763,41.89049 75.13795,66.36152 124.65948,64.56138 6.54222,-0.23782 15.97178,-1.1436 20.95459,-2.01285 z"
     id="path2" />
  <path
     style="fill:#808080;stroke-width:1.03434"
     d="m 274.10101,350.55934 c -1.13778,-0.26667 -5.23643,-1.20871 -9.10812,-2.09341 -41.0087,-9.37074 -72.08784,-48.3725 -72.08784,-90.4643 0,-8.61759 0.16178,-9.39429 1.8101,-8.69049 11.62537,4.96373 15.7633,5.96287 26.65402,6.43587 8.4389,0.36652 13.13757,0.0598 18.10101,-1.18144 22.95318,-5.74022 41.41589,-24.18812 47.14701,-47.10919 3.2193,-12.87526 1.19687,-30.24484 -5.21696,-44.80587 -0.72404,-1.64375 0.003,-1.81011 7.9153,-1.81011 41.45867,0 77.79868,27.66519 90.43578,68.8476 2.57744,8.39946 2.84101,10.75948 2.88085,25.79483 0.0376,14.20851 -0.28852,17.70463 -2.30588,24.71567 -9.70337,33.72271 -34.01804,58.18274 -67.50697,67.91057 -5.82345,1.69158 -11.19998,2.31831 -22.1688,2.58416 -7.96445,0.19303 -15.41172,0.13277 -16.5495,-0.13389 z"
     id="path3" />
</svg>
