<?xml version="1.0" encoding="UTF-8" standalone="no"?>
<svg
   viewBox="0 0 448 512"
   version="1.1"
   id="svg1"
   sodipodi:docname="grip.svg"
   inkscape:version="1.4.3 (0d15f75, 2025-12-25)"
   xmlns:inkscape="http://www.inkscape.org/namespaces/inkscape"
   xmlns:sodipodi="http://sodipodi.sourceforge.net/DTD/sodipodi-0.dtd"
   xmlns="http://www.w3.org/2000/svg"
   xmlns:svg="http://www.w3.org/2000/svg">
  <defs
     id="defs1" />
  <sodipodi:namedview
     id="namedview1"
     pagecolor="#ffffff"
     bordercolor="#000000"
     borderopacity="0.25"
     inkscape:showpageshadow="2"
     inkscape:pageopacity="0.0"
     inkscape:pagecheckerboard="0"
     inkscape:deskcolor="#d1d1d1"
     inkscape:zoom="0.96679688"
     inkscape:cx="223.93535"
     inkscape:cy="311.85455"
     inkscape:window-width="1366"
     inkscape:window-height="697"
     inkscape:window-x="-8"
     inkscape:window-y="-8"
     inkscape:window-maximized="1"
     inkscape:current-layer="svg1" />
  <!--! Font Awesome Pro 6.1.1 by @fontawesome - https://fontawesome.com License - https://fontawesome.com/license (Commercial License) Copyright 2022 Fonticons, Inc. -->
  <path
     d="M128 184C128 206.1 110.1 224 88 224H40C17.91 224 0 206.1 0 184V136C0 113.9 17.91 96 40 96H88C110.1 96 128 113.9 128 136V184zM128 376C128 398.1 110.1 416 88 416H40C17.91 416 0 398.1 0 376V328C0 305.9 17.91 288 40 288H88C110.1 288 128 305.9 128 328V376zM160 136C160 113.9 177.9 96 200 96H248C270.1 96 288 113.9 288 136V184C288 206.1 270.1 224 248 224H200C177.9 224 160 206.1 160 184V136zM288 376C288 398.1 270.1 416 248 416H200C177.9 416 160 398.1 160 376V328C160 305.9 177.9 288 200 288H248C270.1 288 288 305.9 288 328V376zM320 136C320 113.9 337.9 96 360 96H408C430.1 96 448 113.9 448 136V184C448 206.1 430.1 224 408 224H360C337.9 224 320 206.1 320 184V136zM448 376C448 398.1 430.1 416 408 416H360C337.9 416 320 398.1 320 376V328C320 305.9 337.9 288 360 288H408C430.1 288 448 305.9 448 328V376z"
     id="path1" />
  <path
     style="fill:#cccccc;stroke-width:1.03434"
     d="M 33.906264,222.91701 C 16.389509,219.79577 3.2793913,205.93406 0.98195973,188.1052 -0.2624332,178.44827 -0.19991221,140.28889 1.0749295,131.36162 3.0746,117.35862 11.094747,106.43097 23.786936,100.41594 l 6.726195,-3.187657 h 33.616162 33.616162 l 6.436065,2.972877 c 7.88584,3.64253 15.83596,11.71407 19.73707,20.03853 l 2.78848,5.95021 0.31238,32.19602 c 0.28842,29.7263 0.15786,32.63566 -1.70196,37.92716 -4.09727,11.65748 -12.15685,19.97018 -23.95183,24.70407 -5.322635,2.13622 -7.520179,2.29888 -34.133337,2.52646 -15.644444,0.13378 -30.641171,-0.14819 -33.326059,-0.6266 z"
     id="path2" />
  <path
     style="fill:#cccccc;stroke-width:1.03434"
     d="M 29.478788,413.86625 C 18.393087,410.27699 9.3611629,402.7694 4.7345405,393.29816 0.72421976,385.08855 -0.31787453,374.02345 0.23859986,345.55964 0.68089411,322.93617 0.93795069,320.09678 3.0355085,314.66557 7.3307656,303.54386 15.278263,295.56255 26.600923,290.99991 c 5.80816,-2.34049 6.892023,-2.4101 37.52837,-2.4101 30.391975,0 31.755843,0.0856 37.236367,2.33813 11.88687,4.8855 19.86571,13.13322 23.95183,24.75898 1.85993,5.2918 1.99039,8.20113 1.70196,37.95276 l -0.31238,32.22164 -3.3526,6.80623 c -4.038,8.1977 -11.4394,15.46288 -19.69457,19.33206 l -5.914445,2.77211 -32.064647,0.21705 c -23.93307,0.16201 -33.113882,-0.12266 -36.20202,-1.12252 z"
     id="path3" />
  <path
     style="fill:#cccccc;stroke-width:1.03434"
     d="m 193.54678,222.76931 c -12.40527,-2.06045 -25.55009,-12.65982 -30.30608,-24.43741 -2.33452,-5.78114 -2.4003,-6.83829 -2.4003,-38.57948 v -32.63547 l 3.9019,-7.89495 c 4.44004,-8.9838 10.1632,-14.67521 19.24259,-19.13582 l 5.81713,-2.857897 h 34.13333 34.13334 l 5.81302,2.725666 c 11.08223,5.196341 19.14899,14.861591 22.13651,26.523031 1.36113,5.31303 1.58927,11.56944 1.31883,36.16762 -0.38368,34.89688 -0.88574,37.11823 -10.81279,47.84064 -6.62154,7.15204 -13.5415,10.8562 -23.11012,12.37049 -8.0824,1.2791 -52.028,1.21566 -59.86736,-0.0864 z"
     id="path4" />
  <path
     style="fill:#cccccc;stroke-width:1.03434"
     d="m 187.5563,413.31644 c -11.12648,-4.06331 -18.19653,-10.62174 -23.51941,-21.81745 l -3.19649,-6.72323 v -32.58182 c 0,-32.03423 0.0419,-32.68612 2.49535,-38.78788 1.76846,-4.39827 4.3295,-8.02861 8.79192,-12.46278 11.33261,-11.26089 17.78536,-12.86301 51.80768,-12.86301 32.95981,0 40.14667,1.57348 50.21885,10.99483 6.2724,5.86709 9.93516,11.77631 11.91928,19.22962 2.17081,8.15458 2.07349,59.08026 -0.12906,67.53642 -2.97307,11.41438 -11.09652,21.06298 -22.06271,26.20491 l -5.81302,2.72567 -32.58182,0.24902 c -29.73734,0.22728 -33.04878,0.0785 -37.93057,-1.7043 z"
     id="path5" />
  <path
     style="fill:#cccccc;stroke-width:1.03434"
     d="m 348.8696,413.78832 c -10.59977,-3.31269 -20.08087,-11.71247 -24.95419,-22.10816 l -2.75177,-5.87006 v -33.61616 -33.61616 l 3.18765,-6.7262 c 5.90702,-12.46427 17.15837,-20.85491 30.56402,-22.79296 8.95797,-1.29504 50.53752,-1.23169 58.67922,0.0894 17.26156,2.80092 30.21718,15.76238 33.26831,33.28331 0.79887,4.5874 1.06769,16.17673 0.79164,34.12814 -0.37436,24.34417 -0.63808,27.73201 -2.52609,32.45096 -4.86617,12.16263 -13.79945,20.74597 -25.32528,24.33322 -5.5415,1.72471 -9.66942,1.93739 -36.41244,1.87603 -21.88225,-0.0502 -31.35893,-0.44313 -34.52107,-1.43137 z"
     id="path6" />
  <path
     style="fill:#cccccc;stroke-width:1.03434"
     d="m 353.98117,222.88216 c -12.33408,-1.79839 -23.92173,-10.6891 -29.62988,-22.73375 l -3.18765,-6.72619 V 159.78431 126.1464 l 3.35259,-6.81009 c 4.03766,-8.20164 11.43577,-15.46502 19.69458,-19.33593 l 5.91444,-2.772097 31.43384,-0.315306 c 29.30687,-0.293971 31.89645,-0.171587 38.2707,1.808692 11.86581,3.686331 20.30172,11.778541 25.2986,24.267891 1.88801,4.71895 2.15173,8.10679 2.52609,32.45096 0.45842,29.8107 -0.31385,37.60004 -4.55828,45.97601 -5.73164,11.31084 -16.79797,19.37447 -29.39361,21.41803 -7.56113,1.22676 -51.39476,1.26169 -59.72142,0.0476 z"
     id="path7" />
</svg>
