<?xml version="1.0" encoding="UTF-8" standalone="no"?>
<svg
   viewBox="0 0 640 512"
   version="1.1"
   id="svg1"
   sodipodi:docname="link.svg"
   inkscape:version="1.4.3 (0d15f75, 2025-12-25)"
   xmlns:inkscape="http://www.inkscape.org/namespaces/inkscape"
   xmlns:sodipodi="http://sodipodi.sourceforge.net/DTD/sodipodi-0.dtd"
   xmlns="http://www.w3.org/2000/svg"
   xmlns:svg="http://www.w3.org/2000/svg">
  <defs
     id="defs1" />
  <sodipodi:namedview
     id="namedview1"
     pagecolor="#ffffff"
     bordercolor="#000000"
     borderopacity="0.25"
     inkscape:showpageshadow="2"
     inkscape:pageopacity="0.0"
     inkscape:pagecheckerboard="0"
     inkscape:deskcolor="#d1d1d1"
     inkscape:zoom="0.96679688"
     inkscape:cx="320.12929"
     inkscape:cy="256"
     inkscape:window-width="1366"
     inkscape:window-height="697"
     inkscape:window-x="-8"
     inkscape:window-y="-8"
     inkscape:window-maximized="1"
     inkscape:current-layer="svg1" />
  <!--! Font Awesome Pro 6.1.1 by @fontawesome - https://fontawesome.com License - https://fontawesome.com/license (Commercial License) Copyright 2022 Fonticons, Inc. -->
  <path
     d="M172.5 131.1C228.1 75.51 320.5 75.51 376.1 131.1C426.1 181.1 433.5 260.8 392.4 318.3L391.3 319.9C381 334.2 361 337.6 346.7 327.3C332.3 317 328.9 297 339.2 282.7L340.3 281.1C363.2 249 359.6 205.1 331.7 177.2C300.3 145.8 249.2 145.8 217.7 177.2L105.5 289.5C73.99 320.1 73.99 372 105.5 403.5C133.3 431.4 177.3 435 209.3 412.1L210.9 410.1C225.3 400.7 245.3 404 255.5 418.4C265.8 432.8 262.5 452.8 248.1 463.1L246.5 464.2C188.1 505.3 110.2 498.7 60.21 448.8C3.741 392.3 3.741 300.7 60.21 244.3L172.5 131.1zM467.5 380C411 436.5 319.5 436.5 263 380C213 330 206.5 251.2 247.6 193.7L248.7 192.1C258.1 177.8 278.1 174.4 293.3 184.7C307.7 194.1 311.1 214.1 300.8 229.3L299.7 230.9C276.8 262.1 280.4 306.9 308.3 334.8C339.7 366.2 390.8 366.2 422.3 334.8L534.5 222.5C566 191 566 139.1 534.5 108.5C506.7 80.63 462.7 76.99 430.7 99.9L429.1 101C414.7 111.3 394.7 107.1 384.5 93.58C374.2 79.2 377.5 59.21 391.9 48.94L393.5 47.82C451 6.731 529.8 13.25 579.8 63.24C636.3 119.7 636.3 211.3 579.8 267.7L467.5 380z"
     id="path1" />
  <path
     style="fill:#808080;stroke-width:1.03434"
     d="M 146.47211,489.77081 C 79.867774,481.35282 28.994446,431.23065 19.571397,364.74379 18.023199,353.82007 18.912649,328.60814 21.21833,318.06061 26.454872,294.10559 37.443076,271.45656 52.375612,253.83877 61.969332,242.51986 180.64281,124.18554 187.81149,118.78996 231.77844,85.697773 291.17201,80.836898 340.70145,106.27717 c 47.55333,24.42526 77.47215,74.30915 77.39181,129.03596 -0.0334,22.73943 -4.87108,43.48149 -14.75225,63.25147 -8.44275,16.89204 -15.82108,26.22913 -24.25414,30.69304 -4.41111,2.33497 -6.46474,2.73971 -13.96364,2.75209 -7.81382,0.0129 -9.40396,-0.32452 -14.29343,-3.03308 -10.0314,-5.55693 -15.69986,-14.31872 -16.50319,-25.5091 -0.62044,-8.64273 0.65227,-12.59052 7.64214,-23.7051 10.05182,-15.98336 14.70753,-33.35552 13.5195,-50.4463 -1.4334,-20.62076 -8.33147,-36.4284 -22.37508,-51.27482 -26.48743,-28.00159 -71.69017,-32.73655 -104.24354,-10.91945 -6.73857,4.51616 -126.53384,124.03027 -132.223889,131.91357 -21.187624,29.35446 -19.830627,71.07515 3.220746,99.0214 21.541623,26.11591 57.896123,36.15516 89.837113,24.8084 7.84002,-2.78511 20.26812,-9.50041 20.26812,-10.95153 0,-0.48216 2.67636,-2.1114 5.94747,-3.62055 7.57887,-3.49655 17.89518,-3.67733 25.25833,-0.44263 19.3311,8.49234 25.74318,33.35656 12.57071,48.74563 -10.37582,12.12181 -38.94141,26.1065 -63.58366,31.12827 -11.79138,2.40293 -33.00877,3.39667 -43.69246,2.04637 z"
     id="path2" />
  <path
     style="fill:#808080;stroke-width:1.03434"
     d="m 342.36768,419.95421 c -46.07097,-7.89064 -85.22598,-36.81189 -106.18577,-78.43248 -16.61452,-32.99202 -19.30883,-75.09777 -7.05592,-110.26717 7.10947,-20.40621 19.71978,-41.32557 28.12421,-46.6555 11.78624,-7.47461 25.71018,-6.78626 36.91833,1.82514 13.54276,10.40509 15.65125,28.4902 5.10845,43.81673 -10.71969,15.58369 -15.46984,32.26953 -14.53212,51.04694 1.10957,22.21844 8.06338,38.28486 23.22869,53.66878 15.40353,15.62557 34.47515,23.44051 57.14968,23.41814 17.39691,-0.0172 31.37067,-4.01913 45.06729,-12.90694 7.12389,-4.62273 124.07392,-120.54646 131.47771,-130.32392 6.12247,-8.08535 11.11994,-18.11845 14.01821,-28.14344 3.03933,-10.51296 3.2435,-32.26519 0.40088,-42.70958 -4.20756,-15.45941 -14.2952,-31.04052 -26.66731,-41.18962 -27.81496,-22.817185 -66.58132,-24.85207 -96.86235,-5.084402 -9.58512,6.257232 -14.27521,8.003312 -21.49738,8.003312 -17.16901,0 -31.59413,-13.983157 -31.69616,-30.725034 -0.0843,-13.836268 6.56614,-22.761724 25.06416,-33.638123 47.92528,-28.178933 106.81624,-26.616251 152.91628,4.057661 11.15209,7.420343 28.92945,24.519176 36.6712,35.271535 11.82988,16.430259 20.75978,37.020151 25.21244,58.132951 2.58904,12.27623 2.58904,40.47529 0,52.75152 -2.48966,11.80504 -8.00422,28.12497 -12.63825,37.40199 -9.67854,19.3758 -11.33582,21.23715 -82.07801,92.18464 -48.09128,48.23082 -69.27875,68.77779 -75.60689,73.32124 -17.11712,12.28968 -40.17103,21.73167 -61.51259,25.19316 -11.27726,1.82912 -34.29514,1.82016 -45.02478,-0.0175 z"
     id="path3" />
</svg>
