<?xml version="1.0" encoding="UTF-8" standalone="no"?>
<svg
   viewBox="0 0 512 512"
   version="1.1"
   id="svg1"
   sodipodi:docname="magnifying-glass-link.svg"
   inkscape:version="1.4.3 (0d15f75, 2025-12-25)"
   xmlns:inkscape="http://www.inkscape.org/namespaces/inkscape"
   xmlns:sodipodi="http://sodipodi.sourceforge.net/DTD/sodipodi-0.dtd"
   xmlns="http://www.w3.org/2000/svg"
   xmlns:svg="http://www.w3.org/2000/svg">
  <defs
     id="defs1" />
  <sodipodi:namedview
     id="namedview1"
     pagecolor="#ffffff"
     bordercolor="#000000"
     borderopacity="0.25"
     inkscape:showpageshadow="2"
     inkscape:pageopacity="0.0"
     inkscape:pagecheckerboard="0"
     inkscape:deskcolor="#d1d1d1"
     inkscape:zoom="0.96679688"
     inkscape:cx="256"
     inkscape:cy="256"
     inkscape:window-width="1366"
     inkscape:window-height="697"
     inkscape:window-x="-8"
     inkscape:window-y="-8"
     inkscape:window-maximized="1"
     inkscape:current-layer="svg1" />
  <!--! Font Awesome Pro 6.1.1 by @fontawesome - https://fontawesome.com License - https://fontawesome.com/license (Commercial License) Copyright 2022 Fonticons, Inc. -->
  <g
     id="g2"
     transform="matrix(0.6,0,0,0.6,4.0687669,3.1141003)">
    <path
       d="M 500.3,443.7 380.6,324 C 407.82,283.59 421.25,233.1 414.06,179.3 401.8,87.79 326.8,13.32 235.2,1.723 99.01,-15.51 -15.51,99.01 1.724,235.2 c 11.6,91.64 86.08,166.7 177.6,178.9 53.8,7.189 104.3,-6.236 144.7,-33.46 l 119.7,119.7 c 15.62,15.62 40.95,15.62 56.57,0 C 515.9,484.7 515.9,459.3 500.3,443.7 Z M 79.1,208 c 0,-70.58 57.42,-128 128,-128 70.58,0 128,57.42 128,128 0,70.58 -57.42,128 -128,128 -70.58,0 -128,-57.4 -128,-128 z"
       id="path1" />
    <path
       style="fill:#808080;stroke-width:1.03434"
       d="m 461.83434,510.09996 c -10.74363,-3.58178 -12.99435,-5.60933 -75.62404,-68.12513 l -62.17757,-62.06452 -6.60627,4.0808 c -10.91013,6.73938 -15.66649,9.28036 -25.3242,13.52893 -47.33313,20.82245 -100.53058,23.45722 -149.46758,7.40285 C 130.67792,401.00032 106.76448,389.40851 95.775622,382.2084 51.589058,353.25651 19.447747,308.479 6.7739358,258.21613 2.0014653,239.28906 0.74439473,226.54599 1.3005049,202.73131 1.8506158,179.17355 3.4704149,168.24927 9.3458329,148.47187 25.282723,94.826267 64.943354,47.718845 115.42913,22.470073 c 56.6945,-28.3538617 124.51496,-29.0771419 180.91026,-1.929342 86.04333,41.419891 133.13759,134.137119 115.2407,226.881089 -4.25041,22.0261 -14.14035,47.76512 -25.71828,66.93298 -2.87288,4.7562 -5.22343,9.03966 -5.22343,9.5188 0,0.47912 27.8647,28.8072 61.92155,62.9513 71.62516,71.80861 67.88855,67.11076 67.88855,85.35288 0,9.92582 -0.25739,11.36868 -2.9905,16.7636 -6.67355,13.17304 -19.07745,21.37057 -33.47089,22.12038 -5.01696,0.26136 -9.56309,-0.0984 -12.15275,-0.9618 z M 231.4366,334.09864 c 45.23124,-8.67886 83.36534,-42.1324 97.56724,-85.59189 4.38002,-13.40338 6.12364,-24.93271 6.12202,-40.48062 -0.004,-35.59287 -12.37658,-65.7189 -37.23495,-90.6614 -24.74732,-24.831087 -55.19742,-37.444685 -90.50505,-37.490671 -36.47985,-0.04751 -67.20023,12.957826 -92.58118,39.193841 -33.916975,35.0596 -44.947872,85.19099 -28.929289,131.47304 15.771409,45.56789 57.251639,79.0118 105.479959,85.04442 10.19371,1.27508 29.40071,0.56263 40.08125,-1.48672 z"
       id="path2" />
  </g>
  <g
     id="g3"
     transform="matrix(0.5,0,0,0.5,198.14164,263.36249)">
    <path
       d="m 172.5,131.1 c 55.6,-55.59 148,-55.59 203.6,0 50,50 57.4,129.7 16.3,187.2 l -1.1,1.6 C 381,334.2 361,337.6 346.7,327.3 332.3,317 328.9,297 339.2,282.7 l 1.1,-1.6 c 22.9,-32.1 19.3,-76 -8.6,-103.9 -31.4,-31.4 -82.5,-31.4 -114,0 L 105.5,289.5 c -31.51,30.6 -31.51,82.5 0,114 27.8,27.9 71.8,31.5 103.8,8.6 l 1.6,-2 c 14.4,-9.4 34.4,-6.1 44.6,8.3 10.3,14.4 7,34.4 -7.4,44.7 l -1.6,1.1 C 188.1,505.3 110.2,498.7 60.21,448.8 3.741,392.3 3.741,300.7 60.21,244.3 Z M 467.5,380 C 411,436.5 319.5,436.5 263,380 213,330 206.5,251.2 247.6,193.7 l 1.1,-1.6 c 9.4,-14.3 29.4,-17.7 44.6,-7.4 14.4,9.4 17.8,29.4 7.5,44.6 l -1.1,1.6 c -22.9,31.2 -19.3,76 8.6,103.9 31.4,31.4 82.5,31.4 114,0 L 534.5,222.5 C 566,191 566,139.1 534.5,108.5 506.7,80.63 462.7,76.99 430.7,99.9 l -1.6,1.1 c -14.4,10.3 -34.4,6.1 -44.6,-7.42 -10.3,-14.38 -7,-34.37 7.4,-44.64 l 1.6,-1.12 C 451,6.731 529.8,13.25 579.8,63.24 c 56.5,56.46 56.5,148.06 0,204.46 z"
       id="path1-8" />
    <path
       style="fill:#808080;stroke-width:1.03434"
       d="M 146.47211,489.77081 C 79.867774,481.35282 28.994446,431.23065 19.571397,364.74379 18.023199,353.82007 18.912649,328.60814 21.21833,318.06061 26.454872,294.10559 37.443076,271.45656 52.375612,253.83877 61.969332,242.51986 180.64281,124.18554 187.81149,118.78996 231.77844,85.697773 291.17201,80.836898 340.70145,106.27717 c 47.55333,24.42526 77.47215,74.30915 77.39181,129.03596 -0.0334,22.73943 -4.87108,43.48149 -14.75225,63.25147 -8.44275,16.89204 -15.82108,26.22913 -24.25414,30.69304 -4.41111,2.33497 -6.46474,2.73971 -13.96364,2.75209 -7.81382,0.0129 -9.40396,-0.32452 -14.29343,-3.03308 -10.0314,-5.55693 -15.69986,-14.31872 -16.50319,-25.5091 -0.62044,-8.64273 0.65227,-12.59052 7.64214,-23.7051 10.05182,-15.98336 14.70753,-33.35552 13.5195,-50.4463 -1.4334,-20.62076 -8.33147,-36.4284 -22.37508,-51.27482 -26.48743,-28.00159 -71.69017,-32.73655 -104.24354,-10.91945 -6.73857,4.51616 -126.53384,124.03027 -132.223889,131.91357 -21.187624,29.35446 -19.830627,71.07515 3.220746,99.0214 21.541623,26.11591 57.896123,36.15516 89.837113,24.8084 7.84002,-2.78511 20.26812,-9.50041 20.26812,-10.95153 0,-0.48216 2.67636,-2.1114 5.94747,-3.62055 7.57887,-3.49655 17.89518,-3.67733 25.25833,-0.44263 19.3311,8.49234 25.74318,33.35656 12.57071,48.74563 -10.37582,12.12181 -38.94141,26.1065 -63.58366,31.12827 -11.79138,2.40293 -33.00877,3.39667 -43.69246,2.04637 z"
       id="path2-8" />
    <path
       style="fill:#808080;stroke-width:1.03434"
       d="m 342.36768,419.95421 c -46.07097,-7.89064 -85.22598,-36.81189 -106.18577,-78.43248 -16.61452,-32.99202 -19.30883,-75.09777 -7.05592,-110.26717 7.10947,-20.40621 19.71978,-41.32557 28.12421,-46.6555 11.78624,-7.47461 25.71018,-6.78626 36.91833,1.82514 13.54276,10.40509 15.65125,28.4902 5.10845,43.81673 -10.71969,15.58369 -15.46984,32.26953 -14.53212,51.04694 1.10957,22.21844 8.06338,38.28486 23.22869,53.66878 15.40353,15.62557 34.47515,23.44051 57.14968,23.41814 17.39691,-0.0172 31.37067,-4.01913 45.06729,-12.90694 7.12389,-4.62273 124.07392,-120.54646 131.47771,-130.32392 6.12247,-8.08535 11.11994,-18.11845 14.01821,-28.14344 3.03933,-10.51296 3.2435,-32.26519 0.40088,-42.70958 -4.20756,-15.45941 -14.2952,-31.04052 -26.66731,-41.18962 -27.81496,-22.817185 -66.58132,-24.85207 -96.86235,-5.084402 -9.58512,6.257232 -14.27521,8.003312 -21.49738,8.003312 -17.16901,0 -31.59413,-13.983157 -31.69616,-30.725034 -0.0843,-13.836268 6.56614,-22.761724 25.06416,-33.638123 47.92528,-28.178933 106.81624,-26.616251 152.91628,4.057661 11.15209,7.420343 28.92945,24.519176 36.6712,35.271535 11.82988,16.430259 20.75978,37.020151 25.21244,58.132951 2.58904,12.27623 2.58904,40.47529 0,52.75152 -2.48966,11.80504 -8.00422,28.12497 -12.63825,37.40199 -9.67854,19.3758 -11.33582,21.23715 -82.07801,92.18464 -48.09128,48.23082 -69.27875,68.77779 -75.60689,73.32124 -17.11712,12.28968 -40.17103,21.73167 -61.51259,25.19316 -11.27726,1.82912 -34.29514,1.82016 -45.02478,-0.0175 z"
       id="path3" />
  </g>
</svg>
