<?xml version="1.0" encoding="UTF-8" standalone="no"?>
<svg
   viewBox="0 0 640 512"
   version="1.1"
   id="svg1"
   sodipodi:docname="trash-list.svg"
   inkscape:version="1.4.3 (0d15f75, 2025-12-25)"
   xmlns:inkscape="http://www.inkscape.org/namespaces/inkscape"
   xmlns:sodipodi="http://sodipodi.sourceforge.net/DTD/sodipodi-0.dtd"
   xmlns="http://www.w3.org/2000/svg"
   xmlns:svg="http://www.w3.org/2000/svg">
  <defs
     id="defs1" />
  <sodipodi:namedview
     id="namedview1"
     pagecolor="#ffffff"
     bordercolor="#000000"
     borderopacity="0.25"
     inkscape:showpageshadow="2"
     inkscape:pageopacity="0.0"
     inkscape:pagecheckerboard="0"
     inkscape:deskcolor="#d1d1d1"
     inkscape:zoom="0.96679688"
     inkscape:cx="319.61212"
     inkscape:cy="256"
     inkscape:window-width="1366"
     inkscape:window-height="697"
     inkscape:window-x="-8"
     inkscape:window-y="-8"
     inkscape:window-maximized="1"
     inkscape:current-layer="svg1" />
  <!--! Font Awesome Pro 6.1.1 by @fontawesome - https://fontawesome.com License - https://fontawesome.com/license (Commercial License) Copyright 2022 Fonticons, Inc. -->
  <path
     d="M268.2 0C280.3 0 291.4 6.848 296.8 17.69L304 32H384C401.7 32 416 46.33 416 64C416 81.67 401.7 96 384 96H32C14.33 96 0 81.67 0 64C0 46.33 14.33 32 32 32H112L119.2 17.69C124.6 6.848 135.7 0 147.8 0H268.2zM31.1 128H384L362.8 466.1C361.2 492.3 340.3 512 314.9 512H101.1C75.75 512 54.77 492.3 53.19 466.1L31.1 128zM608 128C625.7 128 640 142.3 640 160C640 177.7 625.7 192 608 192H480C462.3 192 448 177.7 448 160C448 142.3 462.3 128 480 128H608zM576 256C593.7 256 608 270.3 608 288C608 305.7 593.7 320 576 320H480C462.3 320 448 305.7 448 288C448 270.3 462.3 256 480 256H576zM448 416C448 398.3 462.3 384 480 384H512C529.7 384 544 398.3 544 416C544 433.7 529.7 448 512 448H480C462.3 448 448 433.7 448 416z"
     id="path1" />
  <path
     style="fill:#808080;stroke-width:1.03434"
     d="M 25.341414,94.7216 C 15.850278,92.403844 8.4123443,86.416226 4.0717977,77.599323 1.0874199,71.537191 0.84333827,70.285959 1.2037197,62.89675 1.8693254,49.249259 8.9591124,39.320754 21.349281,34.684997 26.666454,32.695589 29.276459,32.581565 69.598397,32.57714 l 42.627863,-0.0047 4.38779,-8.59152 c 5.72201,-11.20398 10.3531,-16.4712927 17.61864,-20.0391129 l 5.92085,-2.9074867 66.34015,-0.28762346 c 64.83317,-0.28108979 66.46961,-0.23918806 72.03902,1.84459326 8.74894,3.2733974 14.28697,8.8370208 20.05587,20.1485658 l 4.97787,9.76049 44.48344,0.29931 44.48344,0.299311 5.23736,2.764093 c 13.27804,7.007692 20.07245,21.298771 16.58957,34.893799 -2.73798,10.68739 -8.50172,17.727639 -18.20672,22.239036 l -4.65455,2.163678 -181.52727,0.159886 c -99.84,0.08794 -182.923639,-0.18111 -184.630306,-0.597882 z"
     id="path2" />
  <path
     style="fill:#808080;stroke-width:1.03434"
     d="M 88.900858,509.60563 C 72.374308,505.26354 57.955453,489.78286 54.747882,472.93759 53.866459,468.30859 32.064646,140.47658 32.064646,131.85169 v -3.07593 H 207.8283 383.59194 l -0.48491,5.4303 c -0.2667,2.98667 -5.12168,79.90303 -10.78883,170.92525 -11.39318,182.98993 -10.41012,173.195 -18.61597,185.48335 -4.8731,7.29753 -13.85583,14.47704 -22.46096,17.95211 l -5.94026,2.39889 -114.81212,0.21011 c -105.70909,0.19347 -115.349359,0.069 -121.588032,-1.57014 z"
     id="path3" />
  <path
     style="fill:#808080;stroke-width:1.03434"
     d="m 473.45464,190.76617 c -6.48626,-1.56292 -11.61076,-4.72891 -16.55467,-10.22774 -14.01878,-15.59225 -9.36719,-38.6291 9.87626,-48.91188 l 4.3672,-2.33362 h 72.92122 72.92121 l 4.3672,2.33362 c 10.77768,5.75907 16.81505,14.70541 17.63233,26.12805 0.94266,13.17496 -5.84974,24.65244 -18.16976,30.7024 l -5.89846,2.89654 -68.78384,0.17556 c -38.31617,0.0978 -70.50905,-0.24014 -72.67869,-0.76293 z"
     id="path4" />
  <path
     style="fill:#808080;stroke-width:1.03434"
     d="m 468.56275,317.29111 c -6.48852,-2.28946 -15.66812,-11.65716 -17.92425,-18.29153 -2.17754,-6.40329 -2.22078,-15.34224 -0.10425,-21.55391 1.96694,-5.77266 8.38669,-13.31994 14.25555,-16.75932 7.38829,-4.32983 15.25921,-4.8441 68.05773,-4.44674 56.76479,0.42721 55.24559,0.19314 65.07962,10.02718 6.72259,6.72258 9.23286,12.77029 9.23163,22.2407 -0.002,12.24776 -8.73756,24.64628 -20.28121,28.78414 -4.59134,1.64578 -10.08309,1.80552 -59.36242,1.72678 -46.78246,-0.0748 -54.94693,-0.31398 -58.9524,-1.7273 z"
     id="path5" />
  <path
     style="fill:#808080;stroke-width:1.03434"
     d="m 468.99647,445.26187 c -7.59063,-2.97229 -13.27505,-8.30971 -17.0788,-16.03623 -3.03426,-6.16345 -3.24435,-7.26585 -2.80066,-14.69598 0.76823,-12.86509 6.67341,-21.58389 18.31677,-27.04411 5.68607,-2.66652 6.14205,-2.70979 28.55565,-2.70979 h 22.7773 l 6.90175,3.39772 c 11.04042,5.43518 16.39842,13.63164 17.14579,26.22898 0.40476,6.82236 0.1185,8.67113 -2.08933,13.49366 -3.38563,7.39518 -7.73167,12.18125 -14.4315,15.89265 l -5.50152,3.04759 -23.27273,0.24064 c -21.1159,0.21833 -23.75927,0.0501 -28.52272,-1.81513 z"
     id="path6" />
</svg>
